<svg width="92.000000" height="85.000000" viewBox="0 0 92 85" fill="none" xmlns="http://www.w3.org/2000/svg" xmlns:xlink="http://www.w3.org/1999/xlink">
	<desc>
			Created with Pixso.
	</desc>
	<defs>
		<clipPath id="clip618_140">
			<rect id="logo" width="92.000000" height="85.000000" fill="white" fill-opacity="0"/>
		</clipPath>
	</defs>
	<rect id="logo" width="92.000000" height="85.000000" fill="#FFFFFF" fill-opacity="0"/>
	<g clip-path="url(#clip618_140)">
		<path id="Vector" d="M34.68 23.35L34.68 23.35L34.68 23.35ZM38.92 55.03L38.92 55.02L38.92 55.03ZM15.38 42.66L15.38 42.66L15.39 42.66L15.38 42.66ZM15.53 39.71C15.7 38.06 16 36.44 16.45 34.85L16.3 35.77L16.3 35.79L16.3 35.8L16.24 37.24L16.22 37.24L16.22 37.28L15.68 38.95L15.67 38.96L15.67 38.98L15.53 39.71L15.53 39.71ZM18.63 29.29C19.49 27.63 20.5 26.05 21.65 24.58L21.28 25.18L21.28 25.19L20.64 26.38L20.63 26.39L20.63 26.4L20.29 27.22L20.27 27.23L20.27 27.24L20.26 27.25L18.85 28.95L18.84 28.97L18.83 28.98L18.63 29.29L18.63 29.29ZM24.39 21.54C25.61 20.35 26.94 19.26 28.34 18.29L28.47 18.51L29.1 18.13L29.32 18.03L28.87 18.39L28.87 18.39L28.86 18.4L27.97 19.26L27.96 19.27L27.2 20.1L26.28 20.49L26.27 20.49L26.25 20.5L25.06 21.16L25.05 21.17L24.43 21.58L24.39 21.54ZM30.05 17.2C30.69 16.81 31.35 16.45 32.02 16.12L32.01 16.12L32 16.12L30.65 17.02L30.05 17.2ZM60.14 16.14C60.78 16.47 61.42 16.81 62.04 17.18L61.51 17.03L60.14 16.14ZM63.76 18.29C65.17 19.26 66.49 20.35 67.72 21.54L67.68 21.58L67.09 21.17L67.08 21.17L67.07 21.16L65.88 20.5L65.87 20.49L65.86 20.49L64.94 20.1L64.62 19.7L64.61 19.69L64.6 19.68L63.29 18.4L63.28 18.39L63.27 18.39L62.85 18.05L63.01 18.13L63.62 18.51L63.76 18.29L63.76 18.29ZM70.48 24.61C71.02 25.31 71.53 26.02 72.01 26.76L71.78 26.89L72.23 27.67L71.87 27.25L71.87 27.24L71.86 27.23L71.85 27.22L71.52 26.39L71.51 26.38L71.51 26.37L70.85 25.19L70.84 25.17L70.48 24.61ZM75.68 34.9C76.08 36.38 76.37 37.89 76.54 39.41L76.46 38.98L76.46 38.96L76.46 38.95L75.86 37.12L75.87 36.53L75.87 36.51L75.87 36.5L75.68 34.9ZM76.55 45.87C76.38 47.44 76.08 48.98 75.66 50.5L75.85 48.9L75.86 48.89L75.85 48.87L75.84 48.25L76.46 46.37L76.46 46.36L76.46 46.34L76.55 45.87ZM74.74 53.26C74.69 53.38 74.65 53.5 74.6 53.61L74.36 53.5L73.68 54.99L72.94 56.27L72.33 57.08L72.56 56.09L72.56 56.08L72.76 54.68L72.77 54.67L72.77 54.65L72.78 53.3L73.28 52.73L73.29 52.72L73.3 52.71L74.65 50.69L74.66 50.68L74.66 50.67L75.33 49.36L75.13 50.96L74.79 52.33L74.49 53.18L74.74 53.26L74.74 53.26ZM72.95 57.03C72.48 57.85 71.98 58.66 71.44 59.43L71.78 58.73L71.79 58.72L71.79 58.71L71.89 58.44L72.95 57.03ZM69.81 61.55C69.61 61.79 69.41 62.02 69.21 62.25C68.91 62.11 68.58 62 68.24 61.93L69.53 60.86L69.54 60.85L70.77 59.67L70.78 59.66L70.84 59.59L70.8 59.68L70.1 60.74L70.1 60.74L69.61 61.4L69.81 61.55ZM60.54 68.99C59.98 69.28 59.41 69.56 58.83 69.82L59.17 69.51L59.19 69.5L59.19 69.49L59.43 69.22L60.19 68.92L60.2 68.92L60.54 68.76L60.54 68.99ZM57.87 69.78L58.35 69.63L58.29 69.68L57.88 69.9C57.87 69.86 57.87 69.82 57.87 69.78ZM35.9 70.85C35.43 70.69 34.95 70.51 34.49 70.33L34.6 70.09L33.8 69.68L33.75 69.63L35.52 70.18L35.82 70.7L35.83 70.72L35.83 70.72C35.86 70.76 35.88 70.81 35.9 70.85ZM33.26 69.81C32.79 69.6 32.34 69.38 31.88 69.15C31.93 69.08 31.97 69.01 32.02 68.95L32.69 69.22L32.91 69.49L32.92 69.5L32.93 69.51L33.26 69.81ZM24.37 63.78C23.65 63.08 22.96 62.34 22.31 61.56L22.52 61.4L22.02 60.75L21.33 59.67L21.3 59.61L21.35 59.66L21.36 59.67L22.56 60.84L22.57 60.85L22.58 60.86L23.95 61.96L23.97 61.97L24.94 62.65L25.03 62.89L25.03 62.91L25.5 63.99L25.5 64.01L25.51 64.02L26 64.83L24.55 63.57L24.37 63.78L24.37 63.78ZM20.76 59.56C20.25 58.83 19.77 58.09 19.32 57.32L19.37 57.26L20.23 58.45L20.24 58.45L20.25 58.47L20.26 58.48L20.34 58.71L20.35 58.72L20.35 58.73L20.76 59.56L20.76 59.56ZM16.82 49.8L16.77 49.37L16.98 49.8L16.82 49.8ZM19.74 56.74L19.81 57.09L19.65 56.86L19.74 56.74ZM16.26 49.8C15.94 48.51 15.7 47.19 15.56 45.87L15.86 47.08L15.86 47.1L16.25 48.26L16.24 48.87L16.24 48.89L16.24 48.9L16.36 49.8L16.26 49.8ZM27.97 63.98L27.97 63.98L27.97 63.98ZM49.29 32.73L49.29 32.73L49.29 32.73ZM30.18 39.77L30.18 39.77L30.18 39.77ZM38.37 22.3L38.46 23.19L38.93 24.23L39.54 25.05L40.52 25.91L41.51 26.53L42.93 27.07L44.48 27.42L46.05 27.56L47.65 27.42L48.96 27.13L50.16 26.71L51.45 26.04L52.48 25.19L53.22 24.23L53.58 23.36L53.75 22.29L53.62 21.4L53.21 20.37L52.48 19.38L51.45 18.54L50.4 17.99L48.96 17.46L47.4 17.14L46.05 17.07L44.75 17.14L43.2 17.46L41.76 17.99L40.51 18.7L39.68 19.38L38.93 20.38L38.55 21.25L38.37 22.3ZM23.42 22.99L23.27 23.16L22.4 24.25L21.68 25.42L21.18 26.34L21.36 26.17L21.36 26.16L21.37 26.15L22.61 25.2L22.62 25.19L22.62 25.18L24.66 23.89L24.68 23.88L24.68 23.88L24.97 23.74L25.02 23.56L25.03 23.54L25.04 23.52L25.79 22.06L25.79 22.05L25.8 22.04L26.58 20.86L26.46 20.91L25.3 21.56L24.2 22.3L23.42 22.99L23.42 22.99ZM20.67 27.48L20.55 27.78L20.03 29.65L19.84 30.9L19.81 31.51L19.94 31.37L19.94 31.36L21.74 29.52L21.76 29.51L21.77 29.5L23.89 27.83L23.9 27.82L23.91 27.81L24.18 27.64L24.3 26.19L24.3 26.17L24.3 26.16L24.52 25.13L24.53 25.12L24.53 25.1L24.76 24.37L22.88 25.57L21.67 26.51L20.67 27.48ZM74.25 31.66L74.29 31.79L74.29 31.8L74.3 31.82L74.5 33.13L74.5 33.15L74.5 33.16L74.56 34.51L74.56 34.51L74.65 34.64L74.65 34.65L74.66 34.67L75.35 36L75.15 34.44L74.81 33.06L74.43 32.03L74.25 31.66ZM74.07 33.78L74.05 33.19L73.84 31.91L73.28 29.96L73.07 29.47L72.92 29.24L72.24 28.41L72.55 29.51L72.56 29.53L72.56 29.55L72.78 31.46L72.78 31.47L72.78 31.49L72.78 32.04L73.28 32.61L73.29 32.62L73.3 32.63L74.07 33.78ZM30.52 24.28L30.57 23.67L30.57 23.66L30.74 22.56L30.74 22.54L30.75 22.52L30.92 21.99L29.57 22.34L27.96 22.88L26.39 23.56L25.34 24.07L24.98 25.23L24.75 26.24L24.67 27.32L26.26 26.3L26.27 26.29L26.28 26.29L28.86 24.97L28.87 24.96L30.52 24.28ZM31.1 21.47L31.11 21.42L31.12 21.41L31.13 21.39L31.66 20.36L31.66 20.35L31.67 20.34L32.29 19.4L32.05 19.41L30.51 19.63L29.08 19.95L27.73 20.38L27.47 20.49L27.12 20.88L26.19 22.29L25.61 23.43L26.19 23.14L26.2 23.14L27.78 22.46L27.8 22.45L29.44 21.9L29.45 21.89L31.1 21.47L31.1 21.47ZM32.71 18.9L33.21 18.35L33.22 18.34L34.18 17.44L34.19 17.43L34.21 17.42L34.66 17.1L34.56 17.09L33.33 17.07L31.62 17.21L30.84 17.44L30.63 17.59L29.16 18.74L28.29 19.59L28.13 19.77L28.95 19.51L28.95 19.51L28.97 19.5L30.42 19.18L30.44 19.18L31.99 18.95L32.01 18.95L32.71 18.9ZM35.22 16.71L35.31 16.65L35.32 16.64L36.53 15.9L36.54 15.89L37.75 15.29L37.04 15.07L35.84 15L35.27 15.08L33.43 15.91L32.25 16.51L31.94 16.72L33.29 16.61L33.3 16.6L33.31 16.61L34.59 16.63L34.6 16.63L34.61 16.63L35.22 16.71ZM38.47 15.03L40.28 14.43L40.29 14.43L41.63 14.09L41.52 13.98L40.91 13.64L40.54 13.6L39.44 13.8L37.33 14.35L36.66 14.58L37.09 14.61L37.11 14.61L37.14 14.62L38.47 15.03L38.47 15.03ZM42.17 13.98L43.37 13.78L43.39 13.77L43.4 13.77L45.82 13.63L45.82 13.05L43.83 13.14L41.6 13.41L41.6 13.41L41.48 13.43L41.78 13.59L41.8 13.61L41.83 13.63L42.17 13.98L42.17 13.98ZM46.28 13.63L47.66 13.68L47.68 13.68L49.27 13.86L49.28 13.86L49.29 13.86L49.93 14L50.33 13.6L50.36 13.58L50.38 13.57L50.65 13.42L50.55 13.41L50.55 13.41L48.3 13.14L46.28 13.05L46.28 13.63ZM50.46 14.12L51.82 14.43L51.84 14.43L51.85 14.43L53.66 15.03L54.96 14.62L54.99 14.61L55.02 14.61L55.45 14.58L54.11 14.16L51.98 13.64L51.63 13.58L51.22 13.64L50.63 13.96L50.46 14.12ZM54.38 15.29L55.58 15.89L55.6 15.9L56.82 16.64L56.83 16.65L56.91 16.71L57.48 16.63L57.49 16.63L57.5 16.63L58.77 16.61L58.79 16.6L58.79 16.61L60.18 16.72L59.87 16.52L58.07 15.59L56.8 15.07L56.27 15L55.07 15.07L54.38 15.29ZM57.46 17.1L57.92 17.42L57.94 17.43L57.95 17.44L58.93 18.34L58.93 18.34L58.94 18.36L59.42 18.9L60.12 18.95L60.14 18.95L61.64 19.18L61.66 19.18L63.14 19.5L63.16 19.51L64.05 19.79L62.98 18.74L61.52 17.59L61.31 17.45L60.5 17.21L58.76 17.07L57.53 17.09L57.46 17.1L57.46 17.1ZM59.84 19.4L60.48 20.33L60.49 20.35L60.49 20.36L61.01 21.39L61.01 21.4L61.02 21.42L61.03 21.47L62.65 21.89L62.67 21.9L64.32 22.45L64.34 22.46L66.51 23.4L65.93 22.28L65.35 21.36L64.66 20.49L64.4 20.38L63.04 19.95L61.57 19.63L60.08 19.41L59.84 19.4L59.84 19.4ZM61.21 21.99L61.39 22.52L61.4 22.54L61.4 22.56L61.52 23.27L61.52 23.29L61.61 24.28L63.26 24.96L63.27 24.97L65.85 26.29L65.86 26.29L65.87 26.3L67.47 27.34L67.44 26.76L67.18 25.23L66.79 24.06L66.5 23.9L64.17 22.89L62.54 22.34L61.21 21.99ZM61.59 24.77L61.52 25.56L61.52 25.58L61.4 26.27L61.4 26.29L61.39 26.31L61.12 27.09L61.82 27.51L61.83 27.51L64.38 29.23L64.4 29.25L66.75 31.13L66.76 31.14L66.87 31.24L67.18 30.32L67.44 28.8L67.49 27.9L65.63 26.7L63.07 25.39L61.59 24.77ZM60.95 27.53L60.49 28.46L60.49 28.47L60.47 28.49L60 29.17L59.99 29.18L59.62 29.66L61.77 31.63L61.77 31.64L63.25 33.14L63.26 33.15L64.65 34.68L64.66 34.69L64.82 34.9L65.03 34.66L65.94 33.24L66.67 31.8L66.7 31.72L66.45 31.48L64.11 29.61L61.58 27.9L60.95 27.53ZM59.33 30.02L59.22 30.16L59.21 30.17L59.2 30.18L58.3 31.08L58.29 31.09L58.28 31.1L57.22 31.92L59.58 35.12L59.58 35.13L61.42 37.99L61.52 37.93L62.52 37.2L63.87 35.97L64.51 35.25L64.3 34.99L62.92 33.46L61.45 31.97L61.45 31.97L59.33 30.02ZM56.83 32.18L56.02 32.71L56.01 32.71L56 32.72L54.73 33.38L54.71 33.39L54.71 33.39L53.98 33.69L54.81 35.31L54.81 35.32L56.49 39.12L56.5 39.13L56.99 40.4L58.07 39.92L58.07 39.92L59.87 39L61.04 38.24L59.2 35.39L56.83 32.18ZM53.55 33.87L53.34 33.96L53.32 33.96L51.84 34.42L51.83 34.43L51.82 34.43L50.26 34.76L50.7 36.55L50.7 36.56L51.78 41.61L51.78 41.62L51.83 41.89L52.68 41.74L54.79 41.16L54.79 41.16L56.56 40.56L56.07 39.3L56.07 39.3L54.4 35.52L53.55 33.87ZM49.81 34.85L49.29 34.96L49.28 34.97L49.27 34.97L47.68 35.14L47.66 35.15L46.28 35.18L46.28 42.42L48.31 42.37L50.54 42.13L51.37 41.98L51.33 41.71L50.25 36.66L50.25 36.66L49.81 34.85L49.81 34.85ZM45.82 35.18L44.48 35.15L44.46 35.15L44.46 35.14L42.9 34.97L42.89 34.97L42.88 34.96L42.34 34.85L41.9 36.66L41.03 40.68L41.03 40.68L40.77 41.98L41.61 42.13L43.83 42.37L45.82 42.42L45.82 35.18ZM41.89 34.76L40.3 34.43L40.29 34.42L40.27 34.42L38.57 33.82L38.19 34.56L36.04 39.3L35.56 40.54L35.97 40.71L38.04 41.36L40.15 41.87L40.31 41.9L40.57 40.59L40.57 40.58L41.45 36.56L41.45 36.55L41.89 34.76ZM38.13 33.67L37.88 33.58L37.86 33.58L37.86 33.57L36.55 32.93L36.53 32.92L35.33 32.21L35.31 32.2L35.3 32.2L34.76 32.85L32.32 36.24L31.1 38.26L31.16 38.31L31.16 38.31L32.24 38.99L34.04 39.92L35.14 40.37L35.62 39.13L35.62 39.12L37.77 34.36L37.77 34.35L38.13 33.67ZM34.92 31.93L34.21 31.42L34.19 31.41L34.18 31.4L33.22 30.48L33.21 30.47L32.8 30.01L32.18 30.55L30.65 31.97L29.19 33.46L27.83 34.99L27.63 35.23L28.29 35.97L29.62 37.2L30.72 37.99L31.93 35.99L31.94 35.97L34.4 32.57L34.41 32.56L34.92 31.93ZM32.49 29.67L32.36 29.53L32.35 29.52L32.34 29.51L31.67 28.49L31.66 28.47L31.66 28.47L31.17 27.52L30.52 27.9L28.79 29.01L27.2 30.2L25.42 31.72L25.45 31.79L26.2 33.25L27.11 34.65L27.32 34.88L27.48 34.69L27.48 34.69L28.84 33.15L28.85 33.14L30.33 31.64L30.34 31.64L31.87 30.21L31.88 30.2L32.49 29.67ZM31.01 27.08L30.75 26.31L30.75 26.29L30.74 26.28L30.6 25.59L30.59 25.57L30.59 25.56L30.53 24.77L29.07 25.38L26.5 26.7L24.64 27.89L24.76 29.29L25.07 30.81L25.25 31.26L26.91 29.84L26.92 29.83L28.52 28.64L28.53 28.63L30.27 27.51L30.28 27.51L31.01 27.08ZM31.03 23.73L31 24.08L31.59 23.83L31.6 23.83L31.61 23.82L34.56 22.91L34.56 22.9L36.55 22.37L36.56 22.37L36.57 22.37L37.93 22.14L38.1 21.14L38.1 21.14L35.97 21.21L34.06 21.41L31.45 21.87L31.19 22.65L31.03 23.73ZM30.98 24.59L31.05 25.51L31.19 26.18L31.41 26.84L32.99 25.92L33.01 25.91L35.83 24.51L35.85 24.51L38.13 23.58L38.03 23.35L38.01 23.31L38.01 23.27L37.94 22.6L36.66 22.82L34.68 23.35L31.75 24.26L30.98 24.59L30.98 24.59ZM31.57 27.28L32.07 28.25L32.72 29.23L32.84 29.37L33.45 28.83L33.47 28.82L36.88 26.27L36.89 26.26L38.91 24.96L38.55 24.49L38.53 24.46L38.52 24.44L38.32 24L36.03 24.93L33.22 26.32L31.57 27.28ZM33.15 29.71L33.54 30.16L34.49 31.05L35.22 31.57L37.08 29.32L37.09 29.3L39.94 26.33L39.95 26.32L40.12 26.17L39.22 25.38L39.21 25.36L39.19 25.34L39.18 25.33L37.15 26.65L33.75 29.19L33.15 29.71L33.15 29.71ZM35.6 31.84L36.75 32.51L38.05 33.15L38.35 33.25L39.66 30.75L39.67 30.74L41.69 27.31L41.69 27.3L41.8 27.13L41.33 26.95L41.31 26.95L41.29 26.93L40.5 26.44L40.28 26.65L37.43 29.61L35.6 31.84L35.6 31.84ZM38.79 33.41L40.41 33.98L42 34.31L42.65 31.64L42.66 31.63L43.71 27.96L43.71 27.95L43.77 27.73L42.82 27.51L42.8 27.51L42.79 27.5L42.24 27.3L42.08 27.55L40.07 30.97L38.79 33.41L38.79 33.41ZM42.45 34.4L42.96 34.51L44.5 34.68L45.82 34.72L45.82 28L44.42 27.87L44.4 27.87L44.39 27.87L44.23 27.83L44.15 28.09L44.15 28.09L43.1 31.75L42.45 34.4ZM46.28 34.72L47.63 34.68L49.21 34.51L49.7 34.4L49.29 32.73L48 28.09L47.93 27.83L47.74 27.87L47.74 27.87L47.72 27.87L46.28 28L46.28 34.72ZM50.15 34.31L51.72 33.98L53.17 33.52L53.34 33.45L52.08 30.97L50.05 27.55L49.89 27.3L49.1 27.57L49.08 27.58L49.07 27.58L48.38 27.73L48.44 27.96L48.44 27.96L49.73 32.61L49.74 32.61L50.15 34.31ZM53.77 33.28L54.53 32.97L55.77 32.32L56.54 31.81L53.98 28.84L51.64 26.46L50.36 27.13L50.34 27.14L50.44 27.3L50.45 27.31L52.47 30.74L52.48 30.75L53.77 33.28ZM56.93 31.56L57.99 30.74L58.86 29.87L58.98 29.72L55.82 27.26L55.82 27.26L54.08 26.05L54.08 26.05L52.96 25.32L52.83 25.5L52.81 25.52L52.79 25.53L52.01 26.17L54.32 28.52L54.33 28.53L56.93 31.56ZM59.27 29.36L59.63 28.9L60.08 28.25L60.56 27.3L58.91 26.32L56.06 24.93L53.81 24.02L53.63 24.44L53.62 24.46L53.6 24.49L53.24 24.95L54.34 25.67L54.34 25.67L56.08 26.88L56.09 26.89L59.27 29.36ZM60.72 26.85L60.95 26.17L61.06 25.52L61.14 24.59L60.35 24.27L57.44 23.35L54.43 22.62L54.18 22.58L54.04 23.46L54.03 23.49L54.02 23.51L53.99 23.59L56.24 24.51L56.25 24.51L59.12 25.91L59.14 25.92L60.72 26.85ZM61.13 24.08L61.06 23.34L60.95 22.65L60.68 21.87L58.04 21.41L56.16 21.21L54.18 21.13L54.18 21.13L54.01 21.13L54.06 21.26L54.07 21.28L54.07 21.31L54.19 22.11L54.51 22.16L54.53 22.17L57.56 22.9L57.58 22.91L60.5 23.82L60.52 23.83L61.13 24.08ZM60.47 21.36L60.08 20.58L59.41 19.58L59.21 19.35L58.47 19.3L56.85 19.32L56.85 19.32L55.13 19.45L53.4 19.7L53.3 19.72L53.6 20.12L53.62 20.15L53.63 20.17L53.83 20.66L54.18 20.66L54.19 20.67L56.19 20.75L56.2 20.75L58.1 20.95L58.11 20.95L60.47 21.36ZM58.77 18.86L58.61 18.67L57.65 17.79L56.8 17.19L56.26 17.27L54.21 17.73L52.82 18.19L52.11 18.49L52.79 19.04L52.81 19.06L52.83 19.08L52.99 19.31L53.31 19.24L53.33 19.24L55.08 18.99L55.1 18.99L56.82 18.86L56.83 18.86L58.49 18.84L58.5 18.84L58.77 18.86L58.77 18.86ZM56.2 16.81L55.36 16.3L54.09 15.66L53.68 15.52L52.39 16.16L50.91 17.15L50.45 17.51L50.57 17.56L50.59 17.56L50.6 17.57L51.68 18.14L51.7 18.15L51.71 18.16L52.65 17.76L52.66 17.75L52.67 17.75L54.08 17.29L54.09 17.29L54.1 17.28L56.17 16.81L56.19 16.81L56.2 16.81ZM53.05 15.32L51.71 14.87L50.07 14.51L49.95 14.62L49.21 15.59L48.48 16.89L49.07 17.01L49.09 17.01L49.1 17.02L49.94 17.33L50.63 16.78L50.65 16.77L52.15 15.77L52.16 15.76L52.17 15.75L53.05 15.32ZM49.55 14.39L49.21 14.31L47.63 14.14L46.28 14.09L46.28 16.62L47.44 16.68L47.45 16.68L47.47 16.68L48.01 16.79L48.82 15.35L48.83 15.33L48.84 15.32L49.55 14.39ZM45.82 14.1L43.44 14.24L42.56 14.39L43.31 15.33L43.32 15.34L43.33 15.36L44.14 16.79L44.68 16.68L44.7 16.68L44.71 16.68L45.82 16.62L45.82 14.1ZM42.02 14.48L41.93 14.49L40.41 14.88L39.08 15.31L39.97 15.75L39.98 15.76L39.99 15.77L41.5 16.77L41.51 16.77L41.52 16.78L42.19 17.33L43.05 17.02L43.06 17.01L43.08 17.01L43.66 16.89L42.94 15.61L42.18 14.64L42.02 14.48L42.02 14.48ZM38.45 15.52L38.04 15.66L36.76 16.3L35.93 16.81L35.94 16.81L37.3 17.09L37.32 17.09L37.32 17.09L38.72 17.51L38.74 17.52L40.48 18.19L41.55 17.57L41.57 17.56L41.58 17.56L41.69 17.52L41.23 17.14L39.75 16.16L38.45 15.52ZM35.33 17.2L34.49 17.79L33.54 18.67L33.38 18.85L33.59 18.84L33.61 18.84L35.3 18.86L35.32 18.86L37.04 18.99L37.05 18.99L38.81 19.24L38.82 19.24L39.15 19.32L39.32 19.08L39.34 19.06L39.36 19.04L40.02 18.51L38.59 17.95L37.19 17.54L35.86 17.27L35.33 17.2ZM32.93 19.35L32.72 19.59L32.07 20.57L31.66 21.36L33.99 20.95L34.01 20.95L35.93 20.75L35.95 20.75L38.3 20.67L38.52 20.17L38.53 20.14L38.55 20.12L38.85 19.72L38.74 19.7L37 19.45L35.28 19.32L35.28 19.32L33.62 19.3L32.93 19.35L32.93 19.35ZM24.3 29.34L24.2 28.17L24.17 28.2L22.06 29.86L20.28 31.68L19.77 32.26L19.81 33.4L19.98 34.63L20.51 36.4L20.78 36.01L20.79 36L22.57 33.85L22.58 33.84L22.58 33.83L24.62 31.8L24.64 31.78L24.88 31.58L24.64 30.96L24.63 30.94L24.63 30.92L24.3 29.37L24.3 29.36L24.3 29.34ZM65.54 20.85L65.72 21.09L65.74 21.1L65.74 21.11L66.33 22.05L66.34 22.06L67.09 23.52L67.1 23.54L67.1 23.55L67.17 23.75L68.15 24.3L68.16 24.31L69.49 25.19L69.51 25.2L70.75 26.15L70.76 26.16L70.77 26.17L70.99 26.38L70.45 25.42L69.33 23.69L69.02 23.32L68.85 23.15L67.9 22.3L66.83 21.56L65.67 20.91L65.54 20.85ZM67.39 24.4L67.62 25.1L67.63 25.12L67.63 25.14L67.9 26.7L67.9 26.71L67.9 26.72L67.95 27.65L68.2 27.81L68.22 27.82L69.67 28.92L69.68 28.93L69.69 28.93L71.61 30.7L71.62 30.71L71.62 30.72L72.32 31.52L72.32 31.5L72.11 29.62L71.58 27.78L71.46 27.49L70.46 26.51L69.23 25.57L67.92 24.7L67.39 24.4ZM67.94 28.19L67.9 28.84L67.9 28.85L67.9 28.86L67.63 30.42L67.63 30.43L67.62 30.45L67.24 31.58L68.19 32.48L68.2 32.49L69.51 33.84L69.52 33.85L71.32 36L71.32 36L71.33 36.02L71.6 36.41L71.94 35.25L72.31 33.4L72.32 32.21L71.28 31.03L69.38 29.28L67.95 28.2L67.94 28.19ZM67.06 32.05L66.34 33.47L66.33 33.48L66.33 33.49L65.41 34.92L65.4 34.94L65.39 34.95L65.11 35.26L66.56 37.06L66.57 37.07L67.72 38.67L67.73 38.68L68.75 40.33L68.75 40.33L69.05 40.84L70.1 39.42L71.1 37.71L71.4 36.93L70.96 36.29L69.17 34.15L67.88 32.82L67.06 32.05ZM64.8 35.61L64.2 36.29L64.19 36.3L64.18 36.3L62.82 37.55L62.8 37.56L62.8 37.57L61.79 38.3L61.78 38.31L61.68 38.38L61.83 38.61L61.84 38.63L63.76 42.23L63.76 42.24L64.89 44.68L65 44.6L66.23 43.66L67.37 42.65L68.74 41.22L68.35 40.57L67.34 38.93L66.2 37.35L64.8 35.61ZM61.29 38.63L60.11 39.39L60.1 39.39L60.09 39.4L58.27 40.34L58.26 40.35L57.16 40.83L57.99 42.97L57.99 42.99L59.24 46.89L59.24 46.9L59.44 47.61L60.01 47.39L62.25 46.28L63.71 45.49L64.5 44.95L63.35 42.43L61.44 38.86L61.29 38.63ZM56.73 41L54.92 41.61L54.91 41.61L52.8 42.18L52.78 42.19L51.91 42.35L52.5 45.68L52.5 45.69L53.09 49.48L54.16 49.26L56.77 48.57L58.41 48L58.41 48L59 47.78L58.8 47.03L57.56 43.14L56.73 41ZM51.46 42.43L50.62 42.59L50.6 42.59L48.35 42.83L48.33 42.83L46.28 42.89L46.28 49.8L46.55 49.8C46.74 49.8 46.91 49.85 47.06 49.95C47.21 49.85 47.39 49.8 47.57 49.8L51.09 49.8L52.41 49.62L52.64 49.57L52.05 45.76L52.05 45.76L51.46 42.43ZM45.82 42.89L43.8 42.83L43.78 42.83L41.55 42.59L41.54 42.59L40.68 42.44L40.23 44.73L39.51 49.59L39.68 49.62L41 49.8L45.82 49.8L45.82 42.89ZM40.23 42.36L40.07 42.33L40.06 42.33L37.92 41.81L37.91 41.8L35.83 41.15L35.81 41.14L35.4 40.97L34.55 43.14L33.31 47.02L33.11 47.78L35.33 48.57L37.91 49.26L39.06 49.49L39.77 44.66L39.78 44.65L40.23 42.36ZM34.97 40.8L33.86 40.35L33.85 40.35L33.84 40.34L32.02 39.4L32.01 39.39L30.91 38.7L30.89 38.69L30.85 38.66L30.18 39.77L28.33 43.32L27.61 44.96L27.73 45.06L29.1 45.9L30.56 46.67L32.68 47.61L32.87 46.9L32.87 46.89L34.12 42.99L34.12 42.97L34.97 40.8ZM30.48 38.39L29.34 37.57L29.33 37.56L29.32 37.55L27.97 36.3L27.96 36.3L27.95 36.29L27.33 35.59L26.55 36.55L25.36 38.14L25.36 38.14L23.78 40.57L23.38 41.25L23.71 41.67L24.73 42.66L25.85 43.66L27.23 44.68L27.92 43.13L27.92 43.11L29.78 39.55L29.79 39.53L30.48 38.39ZM27.02 35.24L26.76 34.95L26.75 34.94L26.74 34.93L25.8 33.49L25.79 33.47L25.79 33.47L25.06 32.03L24.94 32.13L22.92 34.15L21.15 36.29L20.72 36.91L21.31 38.27L22.39 40L23.07 40.86L23.39 40.33L23.39 40.32L24.98 37.88L24.99 37.86L26.18 36.26L26.19 36.26L27.02 35.24ZM72.77 32.73L72.77 33.43L72.77 33.45L72.76 33.47L72.39 35.35L72.39 35.37L72.39 35.38L72.02 36.62L72.01 36.64L71.92 36.87L72.84 38.21L72.85 38.22L72.86 38.23L74.07 40.5L74.07 40.51L74.08 40.52L74.62 41.81L74.99 40.72L75.36 38.62L75.4 37.2L75.31 36.94L74.26 34.89L72.92 32.91L72.77 32.73L72.77 32.73ZM71.72 37.39L71.52 37.89L71.51 37.91L71.5 37.92L70.49 39.67L70.48 39.69L70.47 39.69L69.3 41.27L69.71 41.96L69.72 41.98L70.5 43.59L70.5 43.6L71.22 45.26L71.22 45.27L71.79 46.86L72.01 46.6L73.31 44.71L74.31 42.73L74.39 42.5L74.28 42.2L73.66 40.71L72.46 38.46L71.72 37.39ZM68.98 41.63L67.7 42.98L67.68 43L66.53 44.01L66.52 44.02L65.28 44.98L65.27 44.98L65.08 45.11L65.4 45.81L65.41 45.81L65.41 45.83L66.64 49.37L66.65 49.39L66.65 49.4L67.1 51.23L68.6 50.12L70.45 48.41L71.43 47.28L71.36 47.04L70.79 45.44L70.08 43.78L70.08 43.78L69.31 42.19L68.98 41.63ZM64.7 45.37L63.96 45.88L63.95 45.89L63.94 45.89L62.46 46.69L62.46 46.69L60.21 47.81L60.2 47.82L60.19 47.82L59.56 48.06L60.29 50.7L60.29 50.72L61 54.37L61 54.38L61.02 54.5L61.64 54.26L64.17 53.05L66.5 51.66L66.69 51.52L66.2 49.52L64.98 45.99L64.7 45.37ZM59.13 48.22L58.57 48.44L58.56 48.44L56.91 49.01L56.89 49.02L54.27 49.71L54.26 49.71L53.85 49.8L58.85 49.8C59.09 49.8 59.33 49.89 59.5 50.07C59.67 50.24 59.77 50.48 59.77 50.73L59.77 51.74C59.77 51.99 59.67 52.23 59.5 52.4C59.33 52.57 59.09 52.67 58.85 52.67L58.33 52.67C58.19 52.67 58.1 52.78 58.04 52.94C57.89 53.34 57.85 53.92 57.85 54.51L57.85 54.51L57.85 55.63L58.96 55.31L60.58 54.67L60.55 54.46L59.84 50.81L59.13 48.22ZM46.28 52.74L46.28 57.33L47.09 57.34L48.63 57.26L48.63 54.51C48.63 53.92 48.59 53.33 48.45 52.94C48.38 52.78 48.29 52.67 48.16 52.67L47.57 52.67C47.38 52.67 47.2 52.61 47.06 52.52C46.94 52.59 46.81 52.64 46.67 52.66C46.53 52.68 46.4 52.71 46.28 52.74ZM39.09 52.71L38.96 53.68L38.96 53.68L38.83 55.15L38.92 55.03L38.94 55.01C39.09 54.79 39.28 54.5 39.41 54.14C39.5 53.9 39.56 53.64 39.56 53.37C39.56 53.16 39.49 52.99 39.37 52.88C39.29 52.8 39.2 52.75 39.09 52.71ZM42.44 57.17L44.05 57.31L44.05 57.31L45.82 57.33L45.82 52.93C45.13 53.31 44.63 54.04 43.88 55.12L43.69 55.4L43.67 55.43L42.44 57.17ZM38.26 49.8L37.81 49.71L37.79 49.71L35.2 49.02L35.18 49.01L32.99 48.23L32.57 49.8L35.97 49.8C36.21 49.8 36.45 49.89 36.62 50.07C36.79 50.24 36.89 50.48 36.89 50.73L36.89 51.74C36.89 51.99 36.79 52.23 36.62 52.4C36.45 52.57 36.21 52.67 35.97 52.67L35.89 52.67C35.93 52.76 35.98 52.85 36.03 52.94L36.08 53.03L36.08 53.03L38 56.32L38.31 55.89L38.5 53.64L38.51 53.63L38.63 52.67L38.37 52.67C38.13 52.67 37.89 52.57 37.72 52.4C37.54 52.23 37.45 51.99 37.45 51.74L37.45 50.73C37.45 50.5 37.53 50.28 37.68 50.11C37.83 49.94 38.03 49.83 38.26 49.8ZM32.56 48.06L30.36 47.09L30.35 47.09L28.89 46.31L28.87 46.3L27.49 45.45L27.47 45.44L27.41 45.39L27.15 45.99L25.93 49.51L25.86 49.8L32.09 49.8L32.56 48.06ZM27.03 45.11L25.57 44.03L25.56 44.02L25.55 44.01L24.41 43L24.41 42.99L23.38 41.99L23.37 41.98L23.36 41.97L23.13 41.68L22.83 42.19L22.03 43.79L22.03 43.79L21.35 45.43L21.35 45.43L20.77 47.04L20.69 47.35L22.29 49.02L23.22 49.8L23.54 49.8C23.77 49.8 23.98 49.88 24.14 50.02C24.3 49.88 24.52 49.8 24.74 49.8L25.38 49.8L25.48 49.39L25.49 49.37L26.72 45.83L26.72 45.81L27.03 45.11ZM22.82 41.29L22.02 40.28L22.01 40.27L22 40.26L20.91 38.5L20.9 38.49L20.9 38.47L20.41 37.35L20.14 37.74L19.22 39.19L18.12 41.45L17.76 42.47L18.11 43.36L19.22 45.37L20.34 46.9L20.34 46.88L20.91 45.27L20.92 45.26L21.61 43.6L21.62 43.59L22.42 41.98L22.43 41.96L22.82 41.29ZM20.19 36.86L20.1 36.64L20.09 36.63L20.09 36.62L19.54 34.74L19.53 34.73L19.53 34.71L19.35 33.46L19.35 33.45L19.35 33.43L19.33 32.77L19.21 32.9L17.87 34.89L16.82 36.94L16.69 37.34L16.84 39.32L17.32 41.4L17.5 41.82L17.68 41.29L17.69 41.28L17.7 41.26L18.82 38.97L18.82 38.96L18.83 38.95L19.75 37.48L19.76 37.47L20.19 36.86L20.19 36.86ZM19.32 32.07L19.38 30.86L19.38 30.85L19.38 30.84L19.57 29.57L19.58 29.55L19.58 29.54L19.89 28.41L19.21 29.24L18.44 30.43L17.62 32.21L17.62 32.21L17.33 33.05L16.98 34.45L16.76 35.83L16.75 36.07L17.47 34.67L17.48 34.65L17.48 34.64L18.83 32.63L18.84 32.63L18.85 32.61L19.32 32.07L19.32 32.07ZM75.82 38.49L75.82 38.65L75.82 38.67L75.81 38.68L75.44 40.81L75.44 40.83L75.43 40.85L74.87 42.5L75.23 43.54L75.23 43.55L75.24 43.57L75.59 45.1L75.59 45.12L75.82 46.61L75.82 46.62L75.82 46.64L75.82 46.84L76.02 46.24L76.4 44.09L76.49 42.66L76.4 41.21L76.02 39.08L75.82 38.49L75.82 38.49ZM74.61 43.16L73.72 44.93L73.71 44.94L73.7 44.96L72.38 46.87L72.37 46.88L72.36 46.89L71.94 47.39L72.25 48.51L72.26 48.53L72.56 50.11L72.56 50.11L72.56 50.13L72.78 52.45L72.78 52.47L72.78 52.48L72.78 52.6L72.93 52.43L74.26 50.45L75.31 48.39L75.38 48.17L75.36 46.67L75.13 45.2L74.79 43.68L74.61 43.16ZM71.57 47.81L70.79 48.73L70.78 48.74L70.77 48.75L68.91 50.47L68.9 50.48L68.89 50.49L67.21 51.71L67.48 52.8L67.48 52.82L67.48 52.82L67.73 54.45L67.73 54.46L67.9 56.03L67.9 56.05L67.93 57.16L67.95 57.15L70.05 55.48L71.28 54.29L72.32 53.12L72.32 52.49L72.1 50.19L71.81 48.63L71.57 47.81ZM66.81 52.01L66.76 52.04L66.75 52.05L66.74 52.06L64.39 53.45L64.38 53.46L64.37 53.46L61.84 54.68L61.82 54.68L61.08 54.97L61.44 57.77L61.44 57.78L61.58 60.56L63.07 59.93L65.63 58.64L67.48 57.45L67.44 56.08L67.27 54.51L67.27 54.51L67.03 52.89L66.81 52.01ZM60.64 55.15L59.12 55.74L59.12 55.74L59.1 55.75L57.85 56.11L57.85 61.86L60.35 61.08L61.13 60.75L60.98 57.81L60.64 55.15ZM48.63 57.72L47.11 57.81L47.1 57.81L46.28 57.8L46.28 63.53L48.63 63.45L48.63 57.72L48.63 57.72ZM45.82 57.79L44.03 57.77L44.01 57.77L42.13 57.61L40.28 60.23L42.1 63.34L42.89 63.43L45.82 63.53L45.82 57.79ZM25.11 52.78L25.08 52.9L24.83 54.51L24.71 56.08L24.64 57.46L24.9 57.64L27.28 59.09L29.01 59.93L29.68 60.21L26.22 54.31L26.2 54.27C26.13 54.15 26.07 54.02 26.01 53.9C25.82 53.52 25.57 53.01 25.11 52.78ZM22.5 49.8L21.99 49.37L21.98 49.37L21.97 49.35L20.55 47.87L20.33 48.63L20.11 49.8L22.5 49.8ZM21.2 54.65L22.71 56.05L24.19 57.13L24.25 56.05L24.25 56.04L24.37 54.46L24.37 54.44L24.62 52.82L24.63 52.81L24.63 52.8L24.66 52.67C24.47 52.65 24.28 52.58 24.13 52.45C24 52.56 23.83 52.64 23.66 52.66C22.6 52.8 22.03 53.47 21.2 54.65ZM20.18 47.46L18.84 45.63L18.83 45.62L18.82 45.61L17.7 43.57L17.69 43.56L17.69 43.54L17.52 43.13L17.33 43.68L16.98 45.2L16.76 46.67L16.71 48.19L16.78 48.39L17.5 49.8L19.64 49.8L19.88 48.53L19.89 48.51L20.18 47.46L20.18 47.46ZM17.26 42.48L16.89 41.55L16.88 41.54L16.88 41.52L16.38 39.41L16.38 39.39L16.38 39.37L16.31 38.49L16.12 39.08L15.72 41.21L15.63 42.67L15.61 42.67L15.78 44.84L16.29 46.9L16.3 46.64L16.3 46.62L16.3 46.61L16.52 45.12L16.53 45.1L16.88 43.57L16.88 43.55L16.89 43.54L17.26 42.48ZM72.31 53.82L71.62 54.6L71.61 54.61L70.36 55.82L70.36 55.82L70.34 55.83L68.22 57.52L68.21 57.53L68.2 57.53L67.94 57.7L67.9 59.02L67.9 59.03L67.9 59.04L67.73 60.37L67.73 60.38L67.48 61.68L67.48 61.7L67.47 61.71L67.45 61.8C67.5 61.8 67.55 61.81 67.59 61.81L67.91 61.59L69.23 60.51L70.45 59.33L71.49 58.2L71.81 57.32L72.1 56L72.31 54.63L72.31 53.82ZM67.47 58.01L65.87 59.03L65.86 59.04L65.85 59.04L63.27 60.35L63.26 60.36L61.59 61.06L61.55 61.74L66.3 61.74C66.53 61.74 66.75 61.74 66.97 61.76L67.03 61.58L67.27 60.3L67.44 59L67.47 58.01L67.47 58.01ZM61.12 61.26L60.52 61.51L60.51 61.51L60.5 61.52L57.85 62.34L57.85 66.56L58.03 66.51L59.87 65.92L60.54 65.65L60.54 64.4C60.54 64.28 60.53 64.16 60.52 64.06C60.29 64.04 60.07 63.94 59.91 63.77C59.75 63.6 59.66 63.37 59.66 63.13L59.66 62.67C59.66 62.42 59.76 62.18 59.93 62.01C60.1 61.84 60.34 61.74 60.58 61.74L61.09 61.74L61.12 61.26ZM48.63 63.92L46.28 63.99L46.28 68.26L48.11 68.23L48.63 68.19L48.63 63.92ZM45.82 63.99L42.86 63.89L42.84 63.89L42.39 63.84L44.96 68.25L45.82 68.26L45.82 63.99ZM31.08 62.6L31.1 63.06L31.23 62.87L31.08 62.6ZM30.07 60.88L28.83 60.36L28.82 60.35L27.06 59.5L27.05 59.49L27.04 59.49L24.66 58.04L24.71 59L24.83 60.3L25.08 61.59L25.33 62.35L26.41 63.1L27.97 63.98L29.61 64.82L29.82 64.9L30.67 63.67L30.57 61.73L30.07 60.88L30.07 60.88ZM24.18 57.69L22.43 56.42L22.42 56.41L22.41 56.4L20.93 55.03L20.87 55.12L20.68 55.4L20.66 55.43L20.1 56.22L20.33 57.32L20.66 58.23L21.68 59.34L21.68 59.34L22.87 60.5L24.24 61.59L24.7 61.91L24.63 61.72L24.63 61.7L24.63 61.69L24.38 60.38L24.38 60.38L24.37 60.36L24.25 59.03L24.25 59.02L24.18 57.69ZM60.54 67.41L60.28 68.04L60.27 68.06L60.26 68.08L59.98 68.51L60.02 68.49L60.54 68.25L60.54 67.41ZM60.49 66.17L60.05 66.35L60.03 66.36L58.17 66.95L58.16 66.96L57.85 67.05L57.85 69.21L57.85 69.21L57.85 69.3L58.41 69.12L59.15 68.83L59.39 68.56L59.86 67.84L60.22 66.97L60.22 66.97L60.49 66.17ZM48.63 68.65L48.14 68.7L48.12 68.7L46.28 68.72L46.28 70.18C46.4 70.3 46.53 70.41 46.66 70.51C47.03 70.81 47.44 71.01 47.82 71.05L48.16 71.05C48.29 71.05 48.38 70.94 48.45 70.78C48.59 70.4 48.63 69.81 48.63 69.21L48.63 68.65ZM45.82 68.72L45.23 68.71L45.41 69.02C45.43 69.04 45.44 69.07 45.46 69.09C45.56 69.28 45.68 69.47 45.82 69.66L45.82 68.72ZM33.53 66.81L33.53 66.81L32.53 68.24L32.74 68.56L32.97 68.84L33.66 69.12L35.17 69.59L33.53 66.81ZM29.55 65.29L29.42 65.24L29.41 65.23L27.75 64.39L27.74 64.39L26.17 63.5L26.17 63.49L26.16 63.49L25.62 63.12L25.91 63.79L26.48 64.74L27.11 65.59L27.39 65.88L28.41 66.58L28.58 66.68L29.55 65.29Z" fill="#C8DFF5" fill-opacity="1.000000" fill-rule="evenodd"/>
		<path id="Vector" d="M27.44 27.58L27.42 27.26L27.26 27.35L27.31 27.15L26.55 27.07L26.26 27.68L25.68 27.7L25.45 27.98L26.06 28.73L26.89 28.08L27.45 27.58L27.44 27.58ZM38.92 55.03L38.93 55.02L38.92 55.03L38.92 55.03ZM27.97 63.98L27.97 63.98L27.97 63.98L27.97 63.98ZM49.29 32.73L49.29 32.73L49.29 32.73ZM30.18 39.78L30.18 39.78L30.18 39.78ZM61.59 24.78L61.52 25.56L61.52 25.58L61.4 26.27L61.4 26.3L61.39 26.31L61.13 27.1L61.82 27.51L61.83 27.51L64.38 29.24L64.4 29.25L66.75 31.13L66.77 31.14L66.87 31.24L67.18 30.32L67.45 28.8L67.49 27.9L65.64 26.7L63.07 25.39L61.59 24.78ZM60.96 27.53L60.5 28.46L60.49 28.47L60.48 28.49L60 29.17L60 29.18L59.62 29.66L61.77 31.64L61.78 31.64L63.25 33.14L63.26 33.15L64.65 34.68L64.66 34.7L64.82 34.9L65.03 34.66L65.94 33.24L66.68 31.8L66.71 31.72L66.46 31.49L64.12 29.61L61.58 27.91L60.96 27.53ZM59.33 30.02L59.22 30.16L59.21 30.17L59.2 30.18L58.3 31.08L58.29 31.09L58.28 31.1L57.22 31.92L59.58 35.12L59.59 35.13L61.43 37.99L61.52 37.93L62.52 37.2L63.87 35.97L64.51 35.25L64.31 34.99L62.92 33.46L61.45 31.97L61.45 31.97L59.33 30.02ZM56.84 32.18L56.02 32.71L56.01 32.72L56 32.72L54.73 33.39L54.72 33.39L54.71 33.4L53.99 33.69L54.81 35.31L54.82 35.32L56.5 39.12L56.5 39.13L56.99 40.4L58.07 39.92L59.87 39L61.04 38.24L59.21 35.39L56.84 32.18ZM53.56 33.87L53.34 33.96L53.32 33.96L51.85 34.42L51.83 34.43L51.83 34.43L50.26 34.76L50.7 36.55L50.7 36.56L51.78 41.62L51.78 41.62L51.83 41.9L52.68 41.74L54.79 41.16L54.79 41.16L56.56 40.57L56.07 39.3L56.07 39.3L54.4 35.52L53.56 33.87ZM49.81 34.86L49.3 34.97L49.29 34.97L49.27 34.97L47.68 35.15L47.66 35.15L46.29 35.18L46.29 42.42L48.31 42.37L50.55 42.13L51.38 41.98L51.33 41.71L50.25 36.66L50.25 36.66L49.81 34.86L49.81 34.86ZM45.82 35.18L44.48 35.15L44.46 35.15L44.46 35.15L42.91 34.97L42.89 34.97L42.88 34.97L42.35 34.85L41.91 36.66L41.03 40.68L41.03 40.68L40.77 41.98L41.62 42.13L43.83 42.37L45.82 42.42L45.82 35.18ZM38.13 33.67L37.88 33.58L37.87 33.58L37.86 33.57L36.55 32.93L36.53 32.92L35.33 32.22L35.31 32.21L35.31 32.2L34.77 32.85L32.32 36.24L31.1 38.26L31.17 38.31L32.25 38.99L34.04 39.92L35.14 40.37L35.62 39.13L35.62 39.12L37.77 34.36L37.78 34.35L38.13 33.67L38.13 33.67ZM56.93 31.56L57.99 30.74L58.87 29.87L58.98 29.72L55.82 27.26L54.08 26.05L54.08 26.05L52.96 25.32L52.83 25.5L52.81 25.52L52.79 25.53L52.02 26.18L54.32 28.52L54.33 28.53L56.93 31.56ZM38.46 15.52L38.05 15.66L36.77 16.3L35.93 16.81L35.94 16.81L37.3 17.09L37.32 17.09L37.33 17.09L38.73 17.51L38.74 17.52L40.48 18.19L41.55 17.58L41.57 17.57L41.59 17.56L41.69 17.52L41.24 17.14L39.76 16.17L38.46 15.52L38.46 15.52ZM67.94 28.19L67.9 28.84L67.9 28.85L67.9 28.87L67.63 30.42L67.63 30.44L67.62 30.45L67.24 31.58L68.2 32.48L68.21 32.49L69.51 33.84L69.53 33.85L71.32 36L71.32 36L71.33 36.02L71.6 36.41L71.95 35.26L72.31 33.4L72.32 32.21L71.29 31.04L69.38 29.28L67.95 28.2L67.94 28.19L67.94 28.19ZM64.8 35.61L64.2 36.29L64.19 36.3L64.19 36.31L62.82 37.55L62.81 37.56L62.8 37.57L61.79 38.31L61.78 38.31L61.68 38.38L61.83 38.61L61.84 38.63L63.76 42.23L63.77 42.24L64.89 44.68L65.01 44.6L66.23 43.66L67.38 42.65L68.74 41.22L68.36 40.57L67.34 38.93L66.2 37.35L64.8 35.61ZM61.29 38.63L60.11 39.39L60.11 39.39L60.09 39.4L58.27 40.34L58.26 40.35L57.16 40.83L57.99 42.97L58 42.99L59.24 46.89L59.24 46.9L59.44 47.61L60.02 47.39L62.25 46.28L63.71 45.49L64.5 44.95L63.35 42.44L61.44 38.86L61.29 38.63ZM56.73 41L54.92 41.61L54.91 41.61L52.81 42.18L52.79 42.19L51.91 42.35L52.5 45.68L52.5 45.69L53.09 49.48L54.16 49.26L56.77 48.58L58.41 48L59.01 47.78L58.8 47.03L57.56 43.14L56.73 41ZM51.46 42.43L50.62 42.59L50.6 42.59L48.35 42.83L48.34 42.83L46.29 42.89L46.29 49.8L46.55 49.8C46.74 49.8 46.92 49.86 47.06 49.95C47.21 49.85 47.39 49.8 47.57 49.8L51.09 49.8L52.41 49.62L52.64 49.58L52.05 45.76L52.05 45.76L51.46 42.43ZM45.82 42.89L43.8 42.83L43.79 42.83L41.55 42.59L41.54 42.59L40.68 42.44L40.23 44.73L39.51 49.59L39.68 49.62L41 49.8L45.82 49.8L45.82 42.89ZM68.99 41.64L67.7 42.98L67.69 43L66.54 44.01L66.52 44.03L65.28 44.98L65.27 44.98L65.09 45.11L65.41 45.81L65.41 45.81L65.42 45.83L66.65 49.38L66.65 49.39L66.65 49.4L67.1 51.23L68.61 50.12L70.45 48.41L71.43 47.28L71.36 47.04L70.79 45.44L70.08 43.78L70.08 43.78L69.32 42.19L68.99 41.64ZM64.7 45.37L63.96 45.88L63.95 45.89L63.94 45.89L62.47 46.69L62.46 46.69L60.21 47.81L60.2 47.82L60.19 47.82L59.56 48.06L60.29 50.71L60.3 50.72L61.01 54.37L61.01 54.38L61.02 54.5L61.64 54.26L64.17 53.05L66.51 51.66L66.7 51.52L66.21 49.52L64.99 45.99L64.7 45.37ZM59.13 48.23L58.57 48.44L58.57 48.44L56.91 49.02L56.9 49.02L54.27 49.71L54.26 49.71L53.85 49.8L58.85 49.8C58.97 49.8 59.09 49.82 59.2 49.87C59.32 49.92 59.42 49.98 59.5 50.07C59.59 50.16 59.66 50.26 59.7 50.37C59.75 50.48 59.77 50.61 59.77 50.73L59.77 51.75C59.77 51.99 59.68 52.23 59.5 52.4C59.33 52.58 59.1 52.67 58.85 52.67L58.33 52.67C58.2 52.67 58.11 52.78 58.04 52.95C57.89 53.34 57.86 53.92 57.86 54.51L57.85 54.51L57.85 55.63L58.96 55.31L60.58 54.68L60.55 54.46L59.84 50.82L59.13 48.23ZM25.11 52.78L25.08 52.9L24.84 54.51L24.72 56.08L24.64 57.46L24.9 57.65L27.28 59.09L29.02 59.93L29.68 60.22L26.23 54.31L26.2 54.27C26.13 54.15 26.07 54.03 26.01 53.9C25.82 53.52 25.57 53.01 25.11 52.78ZM22.5 49.8L21.99 49.37L21.98 49.37L21.97 49.36L20.55 47.87L20.34 48.63L20.11 49.8L22.5 49.8ZM21.2 54.65L22.71 56.05L24.2 57.13L24.26 56.05L24.26 56.04L24.38 54.46L24.38 54.45L24.63 52.82L24.63 52.81L24.63 52.8L24.66 52.67C24.47 52.65 24.29 52.58 24.14 52.45C24 52.57 23.84 52.64 23.66 52.66C22.6 52.8 22.03 53.47 21.2 54.65L21.2 54.65ZM20.18 47.47L18.84 45.63L18.83 45.62L18.82 45.61L17.7 43.57L17.7 43.56L17.69 43.54L17.53 43.13L17.33 43.68L16.98 45.2L16.76 46.67L16.72 48.19L16.79 48.39L17.5 49.8L19.64 49.8L19.89 48.53L19.89 48.52L20.18 47.47L20.18 47.47ZM17.27 42.48L16.89 41.55L16.89 41.54L16.88 41.52L16.39 39.41L16.38 39.39L16.38 39.38L16.32 38.49L16.12 39.08L15.72 41.21L15.63 42.67L15.62 42.67L15.78 44.84L16.29 46.9L16.3 46.64L16.3 46.62L16.3 46.61L16.53 45.12L16.53 45.11L16.88 43.57L16.89 43.56L16.89 43.54L17.27 42.48ZM30.07 60.88L28.84 60.36L28.82 60.36L27.07 59.5L27.05 59.49L27.05 59.49L24.66 58.04L24.72 59L24.83 60.3L25.08 61.59L25.34 62.35L26.41 63.1L27.97 63.98L29.61 64.82L29.82 64.9L30.68 63.68L30.57 61.73L30.07 60.88L30.07 60.88ZM24.18 57.69L22.43 56.42L22.42 56.41L22.41 56.4L20.94 55.04L20.88 55.13L20.69 55.4L20.66 55.43L20.1 56.22L20.34 57.32L20.66 58.23L21.68 59.34L21.68 59.34L22.88 60.5L24.24 61.59L24.7 61.92L24.64 61.72L24.63 61.7L24.63 61.69L24.38 60.38L24.38 60.38L24.38 60.36L24.26 59.03L24.26 59.03L24.18 57.69ZM29.55 65.29L29.43 65.24L29.41 65.23L27.76 64.39L27.75 64.39L26.18 63.5L26.17 63.5L26.16 63.49L25.63 63.12L25.92 63.8L26.49 64.74L27.11 65.59L27.39 65.88L28.41 66.58L28.58 66.68L29.55 65.29L29.55 65.29ZM73.51 50.74L73.82 50.77L73.8 51.13L73.15 52.11L73.09 52.13L72.83 51.71L73.51 50.74ZM68.98 62.15L69.19 62.09L69.33 62.12L69.22 62.25C69.14 62.21 69.06 62.18 68.98 62.15L68.98 62.15ZM58.29 63.53L58.02 64.28L58.23 64.92L58.53 65.21L58.89 65.21L59.44 64.69L59.39 64.26L58.3 63.49L58.29 63.53ZM26.68 31.11L27.28 30.68L27.19 30.22L26.41 30.88L26.68 31.11L26.68 31.11ZM27.48 29.42L28.14 27.96L29 27.71L28.81 27.07L29.46 26.94L29.02 26.59L27.37 28.08L27.69 28.43L27.01 29.14L26.54 28.9L26.03 29.16L26.04 29.87L25.17 29.83L26.05 30.58L26.91 29.84L26.92 29.83L27.48 29.42ZM31.7 33.46L32.48 33.01L32.44 33.27L32.81 32.87L33.36 32.16L33.62 32.2L33.73 32.87L34.14 32.41L34.32 32.16L34.12 32.02L34.38 31.56L34.4 31.56L34.93 31.93L34.41 32.56L34.4 32.57L31.95 35.97L31.94 35.99L30.72 37.99L29.62 37.2L28.29 35.97L27.63 35.23L27.83 34.99L29.19 33.46L30.11 32.53L30.12 32.76L31.42 32.93L31.68 33.44L31.7 33.46L31.7 33.46ZM35.98 32.06L36.3 32.08L35.98 31.66L36.14 31.44L35.96 31.41L37.44 29.62L39.99 26.95L40.08 26.99L40.97 28.53L40.62 29.13L40.22 29.45L40.29 29.68L39.67 30.74L39.66 30.75L38.35 33.26L38.05 33.15L36.75 32.52L35.98 32.06L35.98 32.06ZM35.44 31.31L34.64 31.16L34.5 31.06L34.65 30.85L34.4 30.47L35.44 29.32L36.91 28.82L37.03 28.11L36.51 27.96L35.93 28.6L34.36 28.94L33.63 29.89L33.59 30.2L33.55 30.16L33.15 29.71L33.75 29.19L37.15 26.65L38.26 25.93L38.49 26.05L39.64 25.87L39.7 26.59L37.09 29.31L37.08 29.32L35.44 31.31ZM33.39 30.65L33.31 30.73L32.62 30.87L31.48 31.89L31.11 31.65L30.77 31.94L30.73 31.9L32.19 30.55L32.8 30.02L33.21 30.47L33.22 30.49L33.39 30.65ZM30.78 31.23L31.74 29.59L31.94 29.08L31.56 29.42L30.62 29.36L30.62 28.64L31.37 27.9L31.66 28.47L31.67 28.48L31.68 28.49L32.35 29.51L32.36 29.52L32.37 29.53L32.49 29.67L31.88 30.2L31.87 30.21L30.78 31.23ZM31.71 27.55L32.17 27.09L33.59 27.32L36.52 26.1L37.69 25.75L36.9 26.26L36.89 26.27L33.47 28.82L33.46 28.83L32.84 29.37L32.72 29.24L32.07 28.25L31.71 27.55ZM40.73 29.84L41.42 29.95L41.95 28.51L42.67 29.17L43.45 28.88L42.66 31.63L42.66 31.64L42.01 34.31L40.41 33.98L38.79 33.41L40.07 30.97L40.73 29.84L40.73 29.84ZM43.98 28.68L44.18 28.61L44.35 29.04L45.82 28.19L45.82 34.72L44.51 34.69L42.97 34.51L42.46 34.4L43.1 31.76L43.1 31.76L43.98 28.68ZM46.29 28.29L47.61 29.03L47.77 28.62L47.48 27.9L47.72 27.88L47.74 27.87L47.75 27.87L47.93 27.83L48.01 28.09L48.12 28.51L48 29.88L48.56 30.09L49.29 32.73L49.7 34.41L49.21 34.51L47.64 34.68L46.29 34.72L46.29 28.29ZM47.3 27.45L47.22 27.26L47.71 26.27L48.31 26.32L48.25 27.07L48.23 27.29L47.66 27.42L47.3 27.45L47.3 27.45ZM48.91 29.64L49.21 29.18L48.91 27.62L49.07 27.58L49.09 27.58L49.1 27.57L49.89 27.3L50.06 27.55L52.08 30.97L53.35 33.45L53.17 33.53L51.72 33.98L50.15 34.31L49.74 32.61L49.74 32.61L48.91 29.64ZM49.06 27.1L49.45 26.39L49.97 26.78L49.06 27.1ZM50.41 27.11L50.8 27.4L50.71 26.95L51.65 26.46L53.99 28.84L56.54 31.82L55.78 32.32L54.54 32.97L53.77 33.28L52.48 30.75L52.48 30.74L50.45 27.31L50.45 27.31L50.34 27.14L50.36 27.14L50.41 27.11L50.41 27.11ZM50.61 26.48L49.76 25.57L50.75 25.15L50.38 24.81L51.17 23.75L52.14 22.97L52.06 22.3L53.75 22.25L53.76 22.29L53.59 23.36L53.22 24.23L52.48 25.19L51.45 26.04L50.61 26.48ZM54.18 22.6L54.27 22.75L54.17 23.67L53.99 23.6L54.02 23.52L54.03 23.49L54.04 23.46L54.18 22.6L54.18 22.6ZM54.13 24.15L54.09 24.56L54.31 24.23L56.06 24.93L58.91 26.32L60.56 27.3L60.09 28.25L59.64 28.9L59.27 29.36L56.09 26.89L56.08 26.88L54.35 25.67L54.34 25.67L53.25 24.95L53.6 24.49L53.62 24.47L53.63 24.44L53.81 24.02L54.13 24.15ZM54.58 23.84L55.22 22.92L55.43 22.86L57.44 23.35L60.36 24.27L61.14 24.59L61.06 25.52L60.95 26.18L60.72 26.86L59.14 25.92L59.12 25.91L56.26 24.51L56.24 24.51L54.58 23.84L54.58 23.84ZM56.22 22.58L56.06 22.02L57.12 21.61L57.96 21.48L58.08 21.42L60.68 21.87L60.95 22.65L61.06 23.34L61.13 24.09L60.52 23.83L60.5 23.83L57.58 22.91L57.57 22.9L56.22 22.58ZM58.72 21.06L58.87 20.97L58.84 20.63L58.05 20.16L58.68 19.32L59.21 19.35L59.41 19.58L60.09 20.58L60.48 21.36L58.71 21.06L58.72 21.06ZM59.7 18.92L59.8 18.9L59.75 17.96L60.8 17.7L60.62 17.25L61.31 17.45L61.52 17.59L62.98 18.75L64.05 19.79L63.16 19.51L63.14 19.5L61.66 19.18L61.65 19.18L60.14 18.95L60.12 18.95L59.7 18.92L59.7 18.92ZM60.17 16.16L60.17 16.16C60.81 16.48 61.43 16.82 62.04 17.19L61.51 17.03L60.17 16.16ZM63.76 18.29C64.75 18.97 65.7 19.71 66.6 20.51L66.66 20.56L66.67 20.56C66.83 20.71 66.99 20.85 67.16 21L67.18 21.24L67.09 21.17L67.08 21.17L67.07 21.16L65.89 20.5L65.88 20.49L65.86 20.49L64.94 20.1L64.62 19.7L64.61 19.69L64.6 19.68L63.29 18.4L63.28 18.39L63.27 18.39L62.85 18.05L63.02 18.13L63.62 18.51L63.76 18.29L63.76 18.29ZM66.8 21.54L66.54 21.65L66.45 22.28L66.34 22.07L66.33 22.05L65.74 21.11L65.74 21.1L65.73 21.09L65.54 20.85L65.68 20.91L66.8 21.54ZM66.35 23.08L66.32 23.29L66.33 23.32L64.35 22.46L64.33 22.45L62.67 21.9L62.66 21.89L61.04 21.47L61.02 21.42L61.01 21.41L61.01 21.39L60.5 20.36L60.49 20.35L60.48 20.33L59.84 19.4L60.08 19.41L61.57 19.63L63.04 19.96L64.4 20.38L64.66 20.49L65.36 21.36L65.94 22.29L66.35 23.08ZM66.65 23.98L67.05 24.83L67.18 25.23L67.45 26.76L67.48 27.34L65.88 26.3L65.87 26.29L65.86 26.29L63.28 24.97L63.26 24.96L61.61 24.28L61.52 23.29L61.52 23.27L61.4 22.56L61.4 22.54L61.39 22.52L61.22 22L62.54 22.34L64.17 22.89L66.5 23.9L66.65 23.98ZM67.88 26.57L68.84 26.12L68.84 25.68L69.29 25.61L70.46 26.51L71.47 27.49L71.58 27.78L72.11 29.62L72.33 31.51L72.33 31.52L71.63 30.72L71.62 30.72L71.61 30.71L69.69 28.93L69.68 28.93L69.67 28.92L68.22 27.82L68.21 27.82L67.96 27.65L67.9 26.72L67.9 26.71L67.9 26.7L67.88 26.57ZM72.47 28.69L73.59 31.21L73.58 32.08L72.92 32.18L72.93 32.21L72.78 32.04L72.79 31.49L72.79 31.47L72.79 31.46L72.56 29.55L72.56 29.53L72.56 29.51L72.24 28.41L72.47 28.69L72.47 28.69ZM73.3 33.46L73.53 34L73.45 35.19L73.7 35.53L74.22 35.53L74.75 35.83L75.31 36.94L75.4 37.2L75.38 37.86L75.21 38.22L74.01 36.49L73.42 36.94L73.01 35.98L72.53 36.13L72.22 37.3L71.92 36.87L72.02 36.64L72.02 36.62L72.39 35.38L72.39 35.37L72.4 35.36L72.77 33.47L72.77 33.45L72.77 33.43L72.78 32.73L72.93 32.91L73.3 33.46L73.3 33.46ZM71.29 36.77L71.07 37.76L70.1 39.42L69.05 40.84L68.75 40.33L68.75 40.33L67.73 38.69L67.72 38.67L66.57 37.07L66.56 37.06L65.12 35.26L65.39 34.96L65.4 34.94L65.41 34.93L66.33 33.49L66.34 33.48L66.34 33.47L67.07 32.05L67.88 32.82L69.17 34.15L70.96 36.29L71.29 36.77ZM71.08 38.66L71.97 39.11L72.34 38.29L72.46 38.46L72.79 39.07L72.68 39.28L72.85 40.24L73.37 40.19L73.39 40.19L73.66 40.71L74.28 42.2L74.39 42.5L74.31 42.73L73.32 44.71L72.01 46.6L71.79 46.86L71.22 45.28L71.22 45.26L70.5 43.6L70.5 43.59L69.73 41.98L69.72 41.96L69.31 41.27L70.48 39.69L70.48 39.69L70.49 39.67L71.08 38.66L71.08 38.66ZM72.76 38.09L73.03 37.96L73.17 38.33L73.04 38.57L72.86 38.23L72.85 38.22L72.85 38.21L72.76 38.09ZM74.1 40.57L74.84 40.96L74.89 41.03L74.62 41.81L74.1 40.57L74.1 40.57ZM75.22 41.49L75.47 41.85L75.77 42.94L75.57 44.34L75.88 44.98L75.69 45.79L75.59 45.12L75.59 45.11L75.24 43.57L75.24 43.56L75.23 43.55L74.88 42.5L75.22 41.49ZM75.37 47.21L75.36 47.25L74.21 48.31L74.14 49.01L73.18 50.13L73.28 50.78L72.78 50.21L72.59 50.37L72.56 50.13L72.56 50.12L72.56 50.11L72.26 48.53L72.26 48.51L71.94 47.39L72.37 46.89L72.38 46.89L72.38 46.87L73.71 44.96L73.72 44.94L73.72 44.93L74.61 43.16L74.79 43.69L75.14 45.2L75.36 46.67L75.37 47.21ZM72.16 50.71L72.04 50.8L71.57 51.67L71.43 52.79L72.28 53.16L71.29 54.29L70.05 55.48L68.15 56.99L67.92 56.65L67.9 56.05L67.9 56.04L67.73 54.46L67.73 54.45L67.49 52.82L67.49 52.82L67.48 52.8L67.22 51.71L68.89 50.49L68.91 50.48L68.91 50.47L70.77 48.75L70.78 48.74L70.79 48.73L71.58 47.81L71.81 48.63L72.11 50.19L72.16 50.71L72.16 50.71ZM72.78 53.38L73.67 53.76L73.96 54.4L73.68 54.99L72.95 56.27L72.34 57.08L72.56 56.1L72.56 56.08L72.77 54.68L72.77 54.67L72.77 54.65L72.78 53.38ZM72.96 57.01C72.85 57.22 72.73 57.43 72.6 57.64L72.5 57.63L72.96 57.01ZM71.66 57.73L71.29 57.45L69.56 57.28L70 59.53L70.11 59.67L69.29 60.46L69.28 60.45L69.22 59.41L68.78 57.99L68.4 57.38L70.35 55.83L70.36 55.82L70.37 55.82L71.61 54.62L71.63 54.6L72.32 53.83L72.31 54.63L72.11 56.01L71.81 57.32L71.66 57.73ZM70.4 60.03L70.5 60.14L70.14 60.68L69.81 60.6L70.4 60.03L70.4 60.03ZM67.45 56.24L67.05 56.1L66.51 57.32L65.89 57.47L65.58 56.18L64.01 55.23L63.31 54.37L62.82 54.37L61.99 55.49L61.2 55.85L61.08 54.98L61.83 54.69L61.84 54.68L64.38 53.46L64.38 53.46L64.4 53.45L66.75 52.06L66.75 52.05L66.76 52.04L66.81 52.01L67.03 52.9L67.27 54.52L67.28 54.52L67.44 56.08L67.45 56.24ZM60.81 56.49L60.72 56.93L60.03 57.51L58.67 59.52L57.85 60.05L57.85 56.11L59.1 55.75L59.12 55.74L59.12 55.74L60.64 55.15L60.81 56.49ZM57.85 62.97L57.87 63.19L57.85 63.21L57.85 62.97L57.85 62.97ZM48.63 55.96L48.45 55.8L46.29 55.93L46.29 52.74C46.41 52.71 46.54 52.68 46.67 52.66C46.81 52.65 46.94 52.59 47.06 52.52C47.21 52.62 47.39 52.67 47.57 52.67L48.16 52.67C48.3 52.67 48.39 52.78 48.45 52.95C48.6 53.33 48.63 53.92 48.63 54.51L48.63 55.96ZM45.82 55.95L45.6 55.97L43.54 55.62L43.67 55.43L43.69 55.4L43.89 55.12C44.63 54.04 45.14 53.31 45.82 52.93L45.82 55.95ZM39.55 53.56L39.07 52.88L39.09 52.71C39.2 52.75 39.3 52.81 39.38 52.88C39.49 52.99 39.56 53.16 39.56 53.37C39.56 53.43 39.56 53.5 39.55 53.56ZM38.03 52.61L38.11 53.21L38.48 53.95L38.31 55.89L38 56.32L36.08 53.03L36.09 53.03L36.03 52.94C35.98 52.85 35.93 52.76 35.89 52.67L35.97 52.67C36.09 52.67 36.21 52.65 36.32 52.6C36.44 52.56 36.54 52.49 36.62 52.4C36.71 52.32 36.78 52.21 36.82 52.1C36.87 51.99 36.89 51.87 36.89 51.75L36.89 50.73C36.89 50.48 36.8 50.24 36.62 50.07C36.45 49.9 36.22 49.8 35.97 49.8L32.57 49.8L32.99 48.23L35.19 49.02L35.2 49.02L37.8 49.71L37.81 49.71L38.26 49.81C38.04 49.83 37.83 49.94 37.68 50.11C37.53 50.28 37.45 50.5 37.45 50.73L37.45 51.75C37.45 51.93 37.51 52.11 37.61 52.26C37.71 52.42 37.86 52.54 38.03 52.61ZM38.87 54.74L38.98 54.95L38.94 55.01L38.92 55.03L38.84 55.15L38.87 54.74ZM43.01 56.37L44.28 57.31L44.05 57.31L44.05 57.31L42.44 57.17L43.01 56.37L43.01 56.37ZM44.44 57.78L43.45 59.46L41.82 60.53L40.66 60.59L40.56 60.7L40.28 60.23L42.13 57.61L44.02 57.77L44.03 57.77L44.44 57.78L44.44 57.78ZM25.86 49.8L25.93 49.51L26.9 46.7L27.35 47.36L31.23 49.46L31.83 48.6L32.37 47.98L32.56 48.06L32.1 49.8L25.86 49.8ZM31.1 63.06L31.08 62.6L31.24 62.87L31.1 63.06L31.1 63.06ZM34.49 68.44L33.73 69.14L33.66 69.12L32.97 68.84L32.74 68.56L32.53 68.24L33.53 66.82L33.53 66.82L34.49 68.44ZM33.26 69.81C32.8 69.6 32.34 69.38 31.89 69.15C31.93 69.08 31.98 69.01 32.03 68.95L32.69 69.22L32.92 69.49L32.93 69.5L32.94 69.51L33.26 69.81ZM24.38 63.78C23.65 63.08 22.96 62.34 22.31 61.56L22.52 61.4L22.02 60.75L21.33 59.67L21.3 59.61L21.35 59.66L21.36 59.67L22.57 60.85L22.58 60.86L22.58 60.86L23.96 61.96L23.97 61.97L24.95 62.65L25.03 62.89L25.04 62.91L25.5 63.99L25.51 64.01L25.51 64.02L26 64.83L24.56 63.57L24.38 63.78L24.38 63.78ZM20.75 59.54C20.25 58.82 19.77 58.08 19.33 57.32L19.37 57.26L20.24 58.45L20.24 58.46L20.25 58.47L20.26 58.48L20.34 58.71L20.35 58.72L20.35 58.73L20.75 59.54ZM16.83 49.8L16.77 49.38L16.98 49.8L16.83 49.8L16.83 49.8ZM19.74 56.74L19.82 57.09L19.65 56.87L19.74 56.74ZM16.27 49.8C15.94 48.51 15.7 47.19 15.56 45.87L15.86 47.08L15.87 47.1L16.26 48.26L16.24 48.87L16.24 48.89L16.24 48.9L16.36 49.8L16.27 49.8ZM15.38 42.66L15.38 42.66L15.39 42.66L15.38 42.66ZM15.55 39.64C15.61 39.02 15.7 38.4 15.8 37.78L16.21 37.33L15.68 38.95L15.68 38.96L15.67 38.98L15.55 39.64L15.55 39.64ZM16.78 37.08L16.78 37.08L17.57 37.38L18.42 36.35L19.21 36.53L19.81 36.05L20.07 37.04L19.76 37.47L19.76 37.48L18.83 38.95L18.83 38.96L18.82 38.97L17.7 41.27L17.69 41.28L17.69 41.29L17.5 41.83L17.33 41.4L16.84 39.32L16.69 37.34L16.78 37.08L16.78 37.08ZM20.22 37.63L20.23 37.69L20.61 37.82L20.9 38.47L20.91 38.49L20.91 38.5L22 40.26L22.01 40.27L22.02 40.28L22.83 41.29L22.43 41.96L22.42 41.98L21.62 43.59L21.62 43.6L20.92 45.26L20.92 45.28L20.34 46.89L20.34 46.9L19.22 45.37L18.11 43.36L17.76 42.47L18.12 41.46L19.23 39.19L20.14 37.74L20.22 37.63L20.22 37.63ZM21.21 38.03L21.29 38.06L23.15 40.11L23.48 40.2L23.4 40.33L23.39 40.33L23.08 40.87L22.39 40L21.31 38.27L21.21 38.03ZM23.73 40.67L23.76 40.73L23.64 40.81L23.73 40.67L23.73 40.67ZM23.2 41.76L23.04 41.83L23.13 41.68L23.2 41.76ZM22.72 42.42L22.84 42.9L23.84 44.41L23.81 45.13L24.71 46.58L25.13 46.64L25.44 45.87L26.39 45.95L26.58 46.23L25.49 49.38L25.49 49.4L25.39 49.8L24.74 49.8C24.51 49.8 24.3 49.88 24.14 50.02C23.97 49.88 23.76 49.8 23.54 49.8L23.22 49.8L22.29 49.02L20.69 47.35L20.78 47.04L21.35 45.43L22.04 43.8L22.04 43.8L22.72 42.42L22.72 42.42ZM32.56 47.56L32.66 47.13L32.86 46.51L31.38 46.47L30.58 45.62L30.15 45.9L29.25 45.11L29.44 44.21L29.16 43.88L29.56 42.88L31.05 43.18L30.91 42.74L31.6 43.23L32.58 42.99L33.38 43.23L33.75 43.97L33.8 43.99L32.87 46.89L32.87 46.9L32.68 47.61L32.56 47.56ZM34.23 44.17L35.39 44.66L36 44.39L36.03 44.39L36.11 43.63L35.72 43.09L34.98 42.06L35.25 41.36L35.53 41.27L35.4 40.98L35.81 41.14L35.83 41.15L37.91 41.8L37.93 41.81L40.06 42.33L40.07 42.33L40.23 42.36L39.78 44.65L39.78 44.66L39.06 49.5L37.91 49.26L35.33 48.58L33.11 47.78L33.32 47.02L34.23 44.17ZM34.66 41.61L34.63 41.57L34.68 41.55L34.66 41.61ZM35.91 40.68L36.02 40.65L35.79 40.63L35.57 40.54L36.05 39.3L38.19 34.56L38.57 33.82L40.28 34.42L40.3 34.43L40.31 34.43L41.9 34.76L41.46 36.55L41.46 36.56L40.58 40.58L40.58 40.59L40.32 41.9L40.15 41.87L38.05 41.36L35.98 40.71L35.91 40.68ZM34.56 40.63L34.22 40.77L33.73 40.53L34.06 41.28L34.69 41.42L34.54 41.64L34.18 41.45L33.43 41.69L33.12 40.85L33.67 40.63L33.07 40.23L33.16 39.98L33.85 40.34L33.86 40.35L33.86 40.35L34.56 40.63ZM32.98 39.89L32.48 39.91L32.04 40.36L31.31 41.15L30.58 41.66L30.63 42.12L30.76 42.82L30.24 42.55L29.51 42.82L29.63 42.4L29.12 41.96L28.86 42.36L28.85 42.34L30.18 39.78L30.86 38.66L30.9 38.69L30.91 38.7L32.01 39.39L32.03 39.4L32.98 39.89L32.98 39.89ZM28.52 41.98L28.36 41.81L27.91 42.66L28.03 42.92L27.93 43.11L27.92 43.13L27.91 43.16L27.84 43.02L27.34 42.7L27.31 41.72L27.2 41.04L27.61 40.28L27.45 39.81L27.1 38.6L27.24 37.42L26.93 37.39L27.09 36.95L26.69 36.71L26.32 37.38L26.31 39.05L26.86 41.04L26.37 40.52L26.15 41.33L25.48 41.62L25.98 40.33L25.42 38.07L26.55 36.55L27.34 35.59L27.96 36.29L27.96 36.3L27.97 36.3L29.32 37.55L29.34 37.56L29.35 37.57L30.48 38.39L29.79 39.53L29.78 39.55L28.52 41.98ZM28.23 43.56L28.17 43.73L28.16 43.72L28.23 43.56ZM25.67 36.95L25.68 36.91L25.48 36.3L24.99 36.28L24.46 36.26L23.84 35.44L23.57 35.81L23.35 36.04L21.87 36.19L21.73 36.68L20.77 36.9L20.75 36.87L21.16 36.29L22.92 34.16L24.94 32.14L25.06 32.03L25.79 33.47L25.79 33.47L25.8 33.49L26.74 34.93L26.76 34.95L26.77 34.96L27.02 35.25L26.19 36.26L26.18 36.27L25.67 36.95L25.67 36.95ZM20.08 34.95L20.08 34.9L20.03 34.78L19.99 34.63L19.95 34.35L20.34 33.51L21.51 32.41L21.89 31.76L22.3 31.79L22.92 33.5L22.59 33.83L22.58 33.84L22.57 33.85L20.79 36L20.78 36.02L20.51 36.41L20.08 34.95ZM24.38 32.04L24.58 30.74L24.59 30.75L24.63 30.92L24.63 30.94L24.64 30.96L24.88 31.58L24.64 31.79L24.63 31.8L24.38 32.04ZM25.11 30.88L25.53 31L25.54 31.02L25.25 31.26L25.11 30.88L25.11 30.88ZM25.68 31.5L25.76 31.75L26.89 31.5L27.05 31.6L28.18 31.15L28.5 31.53L29.48 31.05L30.27 30.07L30.99 30.11L30.47 30.53L30.5 30.85L29.99 30.88L29.62 31.25L30.01 31.97L28.86 33.14L28.85 33.15L27.49 34.69L27.48 34.69L27.32 34.88L27.12 34.66L26.2 33.25L25.46 31.79L25.43 31.72L25.68 31.5ZM32.04 20.64L32.23 20.37L32.75 20.42L32.46 21.22L31.67 21.36L32.04 20.64ZM32.74 21.64L32.85 21.67L32.19 22.51L31.61 22.53L31.32 22.27L31.46 21.87L32.74 21.64L32.74 21.64ZM45.79 14.1L45.8 14.12L45.72 14.1L45.79 14.1ZM44.47 13.71L44.64 13.58L44.48 13.28L44.89 13.14L45.55 13.44L45.62 13.65L44.47 13.71L44.47 13.71ZM34 19.36L33.98 19.31L34.13 19.31L34 19.36ZM33.88 18.84L33.82 18.57L33.71 18.52L34.49 17.79L35.34 17.2L35.86 17.27L37.2 17.54L38.59 17.96L40.02 18.51L39.63 18.83L39.28 18.84L38.11 19.14L37.05 19L37.04 18.99L36.57 18.96L36.44 18.76L36.31 18.94L35.4 18.86L35.43 18.79L35.25 18.86L33.88 18.84ZM33.26 18.3L32.91 18.13L32.9 17.3L31.06 17.38L31.62 17.21L33.33 17.07L34.57 17.09L34.67 17.1L34.21 17.42L34.19 17.44L34.18 17.44L33.26 18.3ZM31.29 16.6L31.46 16.41C31.64 16.31 31.82 16.22 32.01 16.13L31.29 16.6L31.29 16.6ZM35.63 15.03L35.82 15.06L35.98 15.58L36.43 15.56L37.09 15.09L37.75 15.29L36.55 15.89L36.53 15.9L35.33 16.64L35.31 16.65L35.22 16.71L34.62 16.63L34.61 16.63L34.59 16.63L33.32 16.61L33.3 16.61L31.94 16.72L32.26 16.52L33.44 15.91L35.27 15.08L35.63 15.03ZM41.08 14.23L41.12 14.17L41.5 14.13L41.08 14.23ZM42.98 14.91L43.09 15L43.1 15.06L42.98 14.91ZM43.23 16.12L42.5 16.59L43.36 16.68L43.32 16.96L43.09 17.01L43.06 17.01L43.05 17.02L42.19 17.34L41.52 16.78L41.52 16.77L41.5 16.77L39.99 15.77L39.98 15.76L39.97 15.75L39.08 15.32L40.42 14.88L41.94 14.5L42.02 14.48L42.18 14.65L42.94 15.61L43.23 16.12ZM43.21 17.46L42.53 18.02L41.99 18.77L40.39 18.81L40.52 18.7L41.76 17.99L43.2 17.46L43.21 17.46L43.21 17.46ZM36.93 19.45L36.89 19.46L36.88 19.45L36.93 19.45ZM35.98 19.38L35.84 19.57L35.05 19.89L35.25 19.32L35.29 19.32L35.98 19.38L35.98 19.38ZM45.06 15.08L45.63 14.34L44.93 14.15L43.55 14.23L43.19 14.57L43.36 15.4L43.37 15.42L43.74 15.75L45.06 15.08ZM44.15 13.73L44.43 13.59L44.37 13.2L44.12 13.13L43.83 13.14L42.9 13.26L42.73 13.45L43.2 13.8L43.2 13.81L43.38 13.78L43.39 13.78L43.4 13.78L44.15 13.73Z" fill="#92C570" fill-opacity="1.000000" fill-rule="evenodd"/>
		<path id="Vector" d="M91 50.17L90.98 50.46C90.9 51.73 89.91 51.71 89.52 51.69C88.66 51.65 88.06 51.26 88.11 50.35L88.12 50.19C88.12 50.14 88.14 50.08 88.15 50.03L91 50.17ZM0 43.72L0.34 43.77L0.37 43.62C0.44 43.27 0.93 43.29 1.39 43.36L6.42 44.17C6.89 44.24 7.36 44.38 7.3 44.73L7.27 44.89L7.62 44.94L7.98 42.98L7.63 42.93L7.61 43.01C7.5 43.6 6.97 43.56 6.12 43.43L2.19 42.8L2.2 42.76L8.24 41.54L8.37 40.83L3.14 37.62L3.15 37.59L7.48 38.29C7.83 38.34 8.44 38.48 8.34 39.06L8.32 39.15L8.67 39.21L9.3 35.75L8.95 35.7L8.92 35.85C8.86 36.21 8.37 36.19 7.9 36.11L2.87 35.3C2.35 35.22 1.93 35.13 2 34.73L2.03 34.59L1.68 34.53L1.19 37.18L5.51 39.85L0.52 40.83L0 43.72ZM2.23 32.32L2.56 32.44L2.62 32.3C2.75 31.96 3.23 32.07 3.67 32.24L8.43 33.99C8.87 34.16 9.3 34.38 9.17 34.71L9.11 34.86L9.44 34.98L11.41 30.06L9.65 28.94L9.38 29.22C10.2 29.86 10.4 30.86 10.08 31.67C9.98 31.92 9.82 32.13 9.2 31.91L7.12 31.14C7.33 30.47 7.92 30.45 8.7 30.69L8.83 30.36L5.74 29.22L5.61 29.55C6.34 29.86 6.74 30.23 6.46 30.89L3.92 29.96L4.09 29.54C4.28 29.06 4.85 28.14 6.04 28.44L6.17 28.12L4.17 27.48L2.23 32.32ZM7.64 22.52L13.07 25.67L11.75 27.81C11.43 26.9 10.56 25.76 7.71 24.11L6.94 23.66L7.64 22.52L7.64 22.52ZM5.51 24.68L5.81 24.85L5.86 24.77C6.23 24.17 6.86 24.4 7.31 24.66C8.61 25.41 11.86 27.64 10.99 29.04L10.92 29.15L13.2 30.47L13.39 30.16C11.79 29.2 12.32 28.2 12.74 27.51L14.1 25.31C14.54 24.6 15.18 23.71 16.82 24.61L17.01 24.3L14.73 22.98L14.6 23.18C14.32 23.65 14.11 23.69 13.9 23.56L13.61 23.4L9.34 20.93C8.94 20.69 8.55 20.4 8.74 20.09L8.83 19.95L8.52 19.78L5.51 24.68L5.51 24.68ZM15.9 18.96L13.07 16.34C12.73 16.02 12.42 15.65 12.67 15.39L12.78 15.28L12.53 15.04L10.14 17.5L10.4 17.74L10.51 17.62C10.77 17.35 11.16 17.64 11.51 17.95L15.19 21.36C15.54 21.68 15.85 22.04 15.59 22.31L15.48 22.42L15.74 22.66L18.11 20.2L17.86 19.97L17.74 20.1C17.55 20.29 17.25 20.2 17.01 19.97L16.93 19.91L15.27 15.75L15.3 15.73L18.12 18.34C18.47 18.65 18.78 19.02 18.52 19.28L18.41 19.4L18.67 19.63L21.05 17.18L20.79 16.94L20.68 17.06C20.43 17.32 20.03 17.04 19.69 16.72L16 13.32C15.66 13 15.35 12.63 15.6 12.37L15.71 12.25L15.46 12.02L13.08 14.47L13.33 14.71L13.45 14.59C13.67 14.36 14.03 14.55 14.19 14.7L14.26 14.77L15.93 18.93L15.9 18.96ZM20.27 8.47L20.47 8.75L20.6 8.65C20.9 8.44 21.24 8.79 21.52 9.16L24.88 13.65L23.49 14.65L20.13 10.16C19.85 9.79 19.61 9.37 19.91 9.16L20.04 9.06L19.83 8.78L17.05 10.79L17.26 11.07L17.39 10.98C17.68 10.76 18.02 11.11 18.3 11.48L21.29 15.48C21.57 15.86 21.81 16.27 21.51 16.49L21.38 16.58L21.59 16.86L25.97 13.7C26.83 13.07 27.71 12.79 28.74 14.07L29.04 13.86L27.47 11.77L27.27 11.92C26.79 12.26 26.65 12.25 26.27 11.74L23.35 7.84C23.07 7.46 22.83 7.05 23.13 6.83L23.26 6.74L23.05 6.46L20.27 8.47L20.27 8.47ZM30.16 8.75L28.72 5.2C28.54 4.77 28.42 4.31 28.76 4.17L28.91 4.11L28.78 3.79L25.57 5.07L25.7 5.39L25.86 5.33C26.2 5.19 26.44 5.61 26.61 6.04L28.49 10.66C28.66 11.09 28.79 11.55 28.44 11.69L28.29 11.75L28.42 12.06L31.62 10.79L31.49 10.47L31.33 10.54C31.08 10.64 30.84 10.44 30.72 10.13L30.68 10.04L30.95 5.56L30.99 5.55L32.43 9.09C32.6 9.52 32.72 9.98 32.38 10.12L32.23 10.18L32.36 10.5L35.56 9.22L35.43 8.9L35.28 8.96C34.94 9.1 34.7 8.68 34.53 8.25L32.65 3.63C32.48 3.2 32.36 2.74 32.7 2.6L32.85 2.54L32.72 2.22L29.52 3.5L29.65 3.82L29.81 3.75C30.1 3.64 30.34 3.96 30.42 4.16L30.46 4.25L30.19 8.74L30.16 8.75ZM38.27 4.41L37.94 2.37C37.87 1.91 37.86 1.44 38.22 1.38L38.38 1.35L38.33 1.01L34.93 1.56L34.98 1.9L35.14 1.88C35.5 1.82 35.64 2.28 35.71 2.73L36.49 7.66C36.56 8.12 36.58 8.59 36.21 8.65L36.05 8.68L36.11 9.02L39.51 8.47L39.45 8.13L39.3 8.15C38.93 8.21 38.8 7.75 38.73 7.3L38.37 5.08L40.15 4.79L40.5 7.01C40.57 7.47 40.58 7.95 40.22 8L40.06 8.03L40.12 8.37L43.52 7.82L43.46 7.48L43.3 7.5C42.94 7.56 42.8 7.1 42.73 6.65L41.95 1.72C41.88 1.26 41.86 0.79 42.23 0.73L42.39 0.7L42.33 0.36L38.93 0.91L38.99 1.25L39.15 1.23C39.51 1.17 39.64 1.63 39.72 2.08L40.04 4.12L38.27 4.41ZM50.51 0.19L50.14 0.17C50.09 0.38 50.07 0.48 49.87 0.47C49.78 0.46 49.69 0.43 49.61 0.39C49.2 0.21 48.79 0.03 48.08 0C45.8 -0.11 44.11 1.46 43.96 3.87C43.84 5.82 44.97 7.83 47.41 7.95C48.21 7.99 49.3 7.78 50.37 6.67L50.02 6.27C49.43 6.82 48.87 7.13 48.27 7.11C47.51 7.07 46.34 6.51 46.5 3.87C46.68 0.98 47.85 0.68 48.54 0.72C49.55 0.76 49.91 1.95 49.99 2.73L50.35 2.75L50.51 0.19ZM50.8 8.02L54.13 8.8L54.22 8.46L54.07 8.43C53.71 8.34 53.77 7.87 53.88 7.41L54.44 5.23L54.49 5.24L55.05 7.97C55.07 8.07 55.1 8.26 55.07 8.38C55.02 8.56 54.93 8.63 54.8 8.59L54.71 8.57L54.63 8.91L57.8 9.64L57.89 9.31C57.49 8.92 57.41 8.33 57.32 8.01L56.34 4.08L57.72 3.11C58.5 2.56 58.9 2.47 59.23 2.54L59.31 2.21L56.57 1.57L56.49 1.91C57.06 2.09 57.05 2.36 56.99 2.58C56.92 2.86 56.7 3.15 56 3.64L54.67 4.57L54.61 4.56L55.11 2.56C55.23 2.11 55.41 1.66 55.76 1.74L55.92 1.78L56 1.44L52.67 0.67L52.58 1L52.74 1.04C53.09 1.12 53.03 1.6 52.92 2.05L51.69 6.91C51.57 7.36 51.4 7.81 51.04 7.72L50.88 7.69L50.8 8.02ZM61.93 8.79L63.64 5.32C63.84 4.9 64.11 4.5 64.44 4.65L64.59 4.71L64.74 4.4L61.63 2.97L61.48 3.29L61.63 3.36C61.96 3.51 61.81 3.96 61.6 4.39L59.38 8.9C59.17 9.32 58.91 9.73 58.58 9.58L58.43 9.51L58.28 9.82L61.38 11.25L61.53 10.93L61.37 10.86C61.13 10.75 61.12 10.45 61.27 10.14L61.31 10.05L64.86 7.18L64.9 7.19L63.2 10.66C62.99 11.08 62.72 11.48 62.39 11.33L62.25 11.26L62.1 11.58L65.19 13L65.35 12.69L65.2 12.62C64.87 12.47 65.03 12.01 65.23 11.59L67.45 7.08C67.66 6.66 67.93 6.25 68.26 6.4L68.4 6.47L68.55 6.16L65.46 4.73L65.3 5.04L65.46 5.11C65.74 5.25 65.66 5.64 65.56 5.84L65.52 5.92L61.97 8.81L61.93 8.79ZM73.68 9.09C72.38 8.13 72.43 7.42 72.7 7.07C72.93 6.77 73.34 6.68 73.74 6.98C74.15 7.28 74.14 7.66 73.96 7.89C73.91 7.96 73.75 8.07 73.68 8.16C73.5 8.39 73.82 8.66 73.94 8.75C74.07 8.84 74.42 9.06 74.6 8.84C74.67 8.74 74.73 8.57 74.79 8.5C74.97 8.27 75.34 8.16 75.75 8.46C76.15 8.76 76.18 9.16 75.94 9.46C75.67 9.81 74.98 10.04 73.68 9.09ZM69.44 12.95L71.83 9.88C72.12 9.51 72.46 9.17 72.75 9.38L72.88 9.48L73.1 9.2L70.36 7.18L70.14 7.46L70.28 7.56C70.57 7.77 70.32 8.19 70.03 8.56L66.92 12.55C66.63 12.93 66.29 13.27 65.99 13.06L65.87 12.96L65.65 13.24L68.38 15.25L68.6 14.97L68.45 14.87C68.24 14.71 68.3 14.41 68.51 14.14L68.57 14.07L72.63 11.95L72.67 11.97L70.28 15.03C69.99 15.4 69.65 15.75 69.36 15.53L69.23 15.44L69.01 15.71L71.74 17.73L71.96 17.45L71.83 17.36C71.54 17.14 71.79 16.73 72.08 16.35L75.19 12.36C75.48 11.99 75.82 11.64 76.12 11.86L76.24 11.95L76.46 11.68L73.73 9.66L73.51 9.94L73.65 10.04C73.9 10.23 73.74 10.6 73.6 10.77L73.54 10.85L69.47 12.98L69.44 12.95ZM83.28 19.32L83 19.52L83.09 19.65C83.31 19.94 82.95 20.27 82.57 20.54L77.94 23.88L76.92 22.54L81.55 19.2C81.94 18.93 82.37 18.69 82.58 18.98L82.68 19.1L82.96 18.89L80.93 16.21L80.65 16.41L80.74 16.54C80.96 16.83 80.6 17.16 80.22 17.43L76.09 20.41C75.7 20.69 75.27 20.93 75.06 20.64L74.96 20.51L74.68 20.72L77.87 24.95C78.5 25.79 78.79 26.64 77.46 27.66L77.68 27.95L79.83 26.39L79.69 26.2C79.33 25.73 79.35 25.59 79.87 25.22L83.9 22.31C84.29 22.04 84.72 21.8 84.93 22.09L85.03 22.21L85.31 22L83.28 19.32L83.28 19.32ZM86.51 24.39L86.19 24.54L86.25 24.68C86.4 25 85.98 25.26 85.55 25.45L80.88 27.53C80.45 27.73 79.98 27.87 79.83 27.54L79.76 27.4L79.44 27.55L81.66 32.32L83.73 31.88L83.71 31.49C82.66 31.62 81.78 31.07 81.42 30.29C81.31 30.04 81.26 29.78 81.87 29.51L83.91 28.6C84.25 29.21 83.85 29.63 83.12 30.01L83.27 30.33L86.3 28.97L86.15 28.66C85.41 28.95 84.84 28.96 84.55 28.31L87.05 27.2L87.23 27.61C87.45 28.07 87.72 29.1 86.66 29.72L86.8 30.03L88.69 29.09L86.51 24.39ZM86.99 35.09L89.06 34.61C89.52 34.51 90.01 34.46 90.09 34.8L90.13 34.96L90.48 34.88L89.71 31.62L89.36 31.7L89.4 31.85C89.48 32.2 89.02 32.36 88.55 32.47L83.56 33.61C83.1 33.72 82.61 33.77 82.53 33.42L82.49 33.27L82.15 33.35L82.92 36.61L83.26 36.53L83.22 36.38C83.14 36.03 83.6 35.86 84.07 35.76L86.32 35.24L86.72 36.94L84.47 37.46C84.01 37.56 83.52 37.62 83.43 37.27L83.4 37.12L83.05 37.2L83.82 40.46L84.17 40.38L84.13 40.23C84.05 39.88 84.51 39.71 84.98 39.61L89.97 38.46C90.43 38.36 90.92 38.3 91 38.65L91.04 38.8L91.38 38.73L90.61 35.46L90.27 35.54L90.3 35.69C90.39 36.04 89.92 36.21 89.46 36.31L87.4 36.79L86.99 35.09L86.99 35.09ZM83.92 42.02L84.14 45.64L84.49 45.62L84.47 45.32C84.45 44.97 84.93 44.88 85.41 44.85L91.14 44.49L91.15 44.62C91.2 45.54 90.5 46.11 89.75 46.28L89.77 46.64L91.96 46.41L91.59 40.28L89.39 40.33L89.41 40.69C90.18 40.76 90.95 41.23 91 42.16L91.01 42.29L85.28 42.65C84.8 42.68 84.31 42.65 84.29 42.29L84.27 42L83.92 42.02ZM91.86 47.43L91.5 47.41L91.5 47.57C91.47 47.93 90.98 47.96 90.51 47.94L85.4 47.69C84.93 47.67 84.44 47.59 84.46 47.23L84.47 47.07L84.12 47.05L83.91 50.54L84.26 50.56L84.28 50.26C84.3 49.9 84.79 49.87 85.27 49.89L87.46 50C87.42 50.28 87.39 50.56 87.37 50.84C87.3 51.94 87.38 53.8 89.38 53.9C91.5 54 91.58 52.07 91.61 51.55L91.86 47.43ZM80.14 72.88L85.28 72.88L85.28 72.41L85.04 72.41C84.49 72.41 84.4 71.77 84.4 71.14L84.4 68.11L84.49 68.11L86.3 71.52C86.36 71.64 86.48 71.89 86.48 72.05C86.48 72.29 86.38 72.41 86.17 72.41L86.03 72.41L86.03 72.88L90.92 72.88L90.92 72.41C90.2 72.02 89.86 71.27 89.62 70.88L86.74 66.02L88.39 64.33C89.33 63.38 89.86 63.13 90.37 63.13L90.37 62.67L86.16 62.67L86.16 63.13C87.05 63.21 87.14 63.56 87.14 63.86C87.14 64.26 86.91 64.69 86.08 65.56L84.49 67.17L84.4 67.17L84.4 64.4C84.4 63.78 84.49 63.13 85.04 63.13L85.28 63.13L85.28 62.67L80.14 62.67L80.14 63.13L80.37 63.13C80.93 63.13 81.02 63.78 81.02 64.4L81.02 71.14C81.02 71.77 80.93 72.41 80.37 72.41L80.14 72.41L80.14 72.88ZM9.32 62.91L5.61 68.23C4.83 69.4 3.21 71.47 0.48 71.98L0.48 73L9.64 73L9.64 71.98C8.64 72.08 7.63 71.35 7.63 70.23C7.63 69.31 8.02 68.74 8.38 68.26L10.59 65.11L13.61 70.23C13.9 70.71 13.93 71.06 13.93 71.19C13.93 71.79 13.35 71.98 13.09 71.98L12.89 71.98L12.89 73L32.65 73L32.65 71.98C31.65 72.08 30.64 71.35 30.64 70.23C30.64 69.31 31.03 68.74 31.39 68.26L33.6 65.11L36.62 70.23C36.91 70.71 36.94 71.06 36.94 71.19C36.94 71.79 36.36 71.98 36.1 71.98L35.9 71.98L35.9 73L58.85 73L58.85 71.98L58.33 71.98C57.13 71.98 56.93 70.58 56.93 69.21L56.93 54.51C56.93 53.14 57.13 51.75 58.33 51.75L58.85 51.75L58.85 50.73L47.57 50.73L47.57 51.75L48.16 51.75C49.36 51.75 49.55 53.14 49.55 54.51L49.56 69.21C49.56 70.58 49.36 71.98 48.16 71.98L47.8 71.98C46.53 71.89 45.26 70.68 44.64 69.53L39.19 60.18L42.92 54.89C44.22 53.02 44.86 51.97 46.55 51.75L46.55 50.73L38.37 50.73L38.37 51.75L38.83 51.75C39.7 51.75 40.48 52.38 40.48 53.37C40.48 54.29 40.03 55.09 39.67 55.56L37.92 58.01L35.29 53.49C35.12 53.21 34.93 52.92 34.93 52.51C34.93 51.97 35.42 51.75 35.77 51.75L35.97 51.75L35.97 50.73L24.74 50.73L24.74 51.75C26.23 51.84 26.64 53.18 27 53.81L32.33 62.91L28.62 68.23C27.91 69.31 26.47 71.15 24.12 71.83C23.09 71.46 22.14 70.48 21.63 69.53L16.18 60.18L19.91 54.89C21.21 53.02 21.85 51.97 23.54 51.75L23.54 50.73L15.36 50.73L15.36 51.75L15.82 51.75C16.69 51.75 17.47 52.38 17.47 53.37C17.47 54.29 17.02 55.09 16.66 55.56L14.91 58.01L12.28 53.49C12.11 53.21 11.92 52.92 11.92 52.51C11.92 51.97 12.41 51.75 12.76 51.75L12.96 51.75L12.96 50.73L1.23 50.73L1.23 51.75C2.72 51.84 3.63 53.18 3.99 53.81L9.32 62.91ZM65.5 72.03C65.19 72.03 64.84 71.94 64.84 71.23L64.84 67.98C66.81 67.93 67.08 69.13 67.08 69.92C67.08 71.62 66.09 72.03 65.5 72.03L65.5 72.03ZM64.84 63.59L65.11 63.59C65.45 63.59 66.88 63.6 66.88 65.29C66.88 66.52 66.08 67.06 65.26 67.06L64.84 67.06L64.84 63.59ZM67.46 67.5L67.46 67.44C68.6 67.36 70.1 66.66 70.1 65.05C70.1 63.08 68.13 62.67 66.3 62.67L60.58 62.67L60.58 63.13L60.82 63.13C61.37 63.13 61.46 63.78 61.46 64.4L61.46 71.14C61.46 71.77 61.37 72.41 60.82 72.41L60.58 72.41L60.58 72.88L66.24 72.88C69.22 72.88 70.62 71.81 70.62 70.08C70.62 68.09 68.6 67.57 67.46 67.5ZM70.72 62.67L70.72 63.13L70.96 63.13C71.51 63.13 71.6 63.78 71.6 64.4L71.6 71.14C71.6 71.77 71.51 72.41 70.96 72.41L70.72 72.41L70.72 72.88L78.77 72.88L79.45 70.15L78.89 69.96C78.42 71.29 77.09 72.03 75.78 72.03C75.36 72.03 74.98 71.94 74.98 71.07L74.98 68.12C76.03 68.05 76.38 68.76 76.45 69.84L76.99 69.84L76.99 65.47L76.45 65.47C76.39 66.52 76.07 67.2 74.98 67.19L74.98 63.59L75.66 63.59C76.44 63.59 78.06 63.83 78.25 65.45L78.77 65.45L78.64 62.67L70.72 62.67L70.72 62.67Z" fill="#0075AC" fill-opacity="1.000000" fill-rule="evenodd"/>
		<path id="Vector" d="M5.17 83.57C5.17 83.68 5.13 83.73 5.05 83.73L4.27 83.73C4.19 83.73 4.15 83.68 4.15 83.57L4.09 80.91L4.09 79.66C4.02 79.96 3.98 80.18 3.95 80.31C3.91 80.51 3.86 80.7 3.79 80.89L3.32 82.42C3.31 82.46 3.3 82.49 3.28 82.51C3.27 82.54 3.24 82.56 3.19 82.56L2.63 82.56C2.57 82.56 2.54 82.54 2.52 82.51C2.51 82.48 2.5 82.45 2.49 82.42L2.04 80.9C1.98 80.69 1.92 80.48 1.88 80.27C1.83 80.07 1.79 79.87 1.76 79.67L1.72 81.27L1.65 83.57C1.65 83.68 1.61 83.73 1.53 83.73L0.88 83.73C0.8 83.73 0.76 83.68 0.76 83.57L0.97 78.53C0.97 78.42 1.02 78.37 1.1 78.37L1.92 78.37C1.99 78.37 2.03 78.41 2.06 78.49L2.69 80.47C2.74 80.64 2.79 80.82 2.84 81.01C2.88 81.2 2.91 81.33 2.92 81.41C2.95 81.24 2.99 81.08 3.03 80.93C3.1 80.74 3.15 80.59 3.19 80.47L3.85 78.49C3.87 78.45 3.88 78.42 3.9 78.4C3.91 78.38 3.94 78.37 3.99 78.37L4.79 78.37C4.85 78.37 4.9 78.38 4.92 78.41C4.94 78.43 4.95 78.5 4.95 78.62L5.17 83.57L5.17 83.57ZM9.29 78.51L9.14 79.1C9.12 79.17 9.07 79.21 8.99 79.21L7.45 79.21L7.45 80.51L8.76 80.51C8.84 80.51 8.88 80.53 8.9 80.57C8.91 80.6 8.92 80.64 8.92 80.67L8.92 81.2C8.92 81.28 8.9 81.32 8.86 81.34C8.83 81.35 8.8 81.36 8.76 81.36L7.45 81.36L7.45 82.89L9.07 82.89C9.18 82.89 9.23 82.94 9.23 83.04L9.23 83.58C9.23 83.65 9.21 83.69 9.18 83.71C9.14 83.72 9.11 83.73 9.07 83.73L6.55 83.73C6.48 83.73 6.43 83.71 6.42 83.68C6.4 83.65 6.39 83.61 6.39 83.58L6.39 78.52C6.39 78.45 6.41 78.41 6.45 78.39C6.48 78.37 6.52 78.37 6.55 78.37L9.19 78.37C9.23 78.37 9.26 78.38 9.28 78.4C9.3 78.43 9.3 78.46 9.29 78.51L9.29 78.51ZM13.92 84.84C13.92 84.94 13.87 84.99 13.77 84.99L13.09 84.99C13.02 84.99 12.97 84.98 12.96 84.94C12.94 84.91 12.94 84.87 12.93 84.84L12.93 83.73L10.72 83.73L10.72 84.84C10.72 84.91 10.7 84.95 10.67 84.97C10.63 84.98 10.6 84.99 10.56 84.99L9.89 84.99C9.81 84.99 9.77 84.98 9.75 84.94C9.74 84.91 9.73 84.87 9.73 84.84L9.73 83.04C9.73 82.94 9.78 82.89 9.89 82.89L10.04 82.89C10.15 82.68 10.24 82.47 10.31 82.26C10.38 82.06 10.44 81.81 10.48 81.54C10.53 81.26 10.56 80.98 10.57 80.72C10.59 80.46 10.6 80.23 10.6 80.04L10.6 78.52C10.6 78.42 10.65 78.37 10.75 78.37L13.3 78.37C13.37 78.37 13.42 78.38 13.43 78.42C13.45 78.46 13.46 78.49 13.46 78.52L13.46 82.89L13.77 82.89C13.84 82.89 13.89 82.9 13.9 82.94C13.92 82.98 13.92 83.01 13.92 83.04L13.92 84.84ZM12.4 82.89L12.4 79.21L11.59 79.21L11.59 80.19C11.59 80.6 11.57 80.93 11.55 81.17C11.52 81.41 11.48 81.65 11.42 81.89C11.34 82.25 11.22 82.58 11.07 82.89L12.4 82.89L12.4 82.89ZM18.55 83.58C18.55 83.68 18.5 83.73 18.39 83.73L17.64 83.73C17.57 83.73 17.53 83.71 17.51 83.68C17.5 83.65 17.49 83.61 17.49 83.58L17.49 81.08L17.52 80.22L17.49 80.22C17.4 80.46 17.34 80.62 17.3 80.71C17.27 80.8 17.18 80.99 17.05 81.27L15.97 83.6C15.93 83.69 15.87 83.73 15.8 83.73L15.05 83.73C14.97 83.73 14.93 83.71 14.91 83.68C14.9 83.65 14.89 83.61 14.89 83.58L14.89 78.52C14.89 78.45 14.91 78.41 14.95 78.39C14.98 78.38 15.01 78.37 15.05 78.37L15.8 78.37C15.87 78.37 15.91 78.38 15.93 78.42C15.94 78.46 15.95 78.49 15.95 78.52L15.95 80.78C15.95 80.82 15.95 80.97 15.94 81.23C15.93 81.45 15.92 81.66 15.92 81.88L15.95 81.88L16.47 80.66L17.45 78.53C17.48 78.46 17.5 78.42 17.51 78.41C17.54 78.38 17.59 78.37 17.65 78.37L18.39 78.37C18.46 78.37 18.51 78.38 18.52 78.42C18.54 78.46 18.55 78.49 18.55 78.52L18.55 83.58ZM23.89 84.84C23.89 84.94 23.84 84.99 23.73 84.99L23.05 84.99C22.98 84.99 22.94 84.98 22.92 84.94C22.91 84.91 22.9 84.87 22.9 84.84L22.9 83.73L20.09 83.73C20.02 83.73 19.97 83.71 19.96 83.68C19.94 83.65 19.94 83.61 19.94 83.58L19.94 78.52C19.94 78.45 19.95 78.41 19.99 78.39C20.02 78.38 20.06 78.37 20.09 78.37L20.84 78.37C20.91 78.37 20.96 78.38 20.97 78.42C20.99 78.46 21 78.49 21 78.52L21 82.89L22.36 82.89L22.36 78.52C22.36 78.45 22.38 78.41 22.42 78.39C22.45 78.37 22.49 78.37 22.52 78.37L23.27 78.37C23.34 78.37 23.38 78.38 23.4 78.42C23.41 78.46 23.42 78.49 23.42 78.52L23.42 82.89L23.73 82.89C23.84 82.89 23.89 82.94 23.89 83.04L23.89 84.84ZM28.51 83.58C28.51 83.68 28.46 83.73 28.36 83.73L27.61 83.73C27.53 83.73 27.49 83.71 27.48 83.68C27.46 83.65 27.45 83.61 27.45 83.58L27.45 81.08L27.48 80.22L27.45 80.22C27.37 80.46 27.31 80.62 27.27 80.71C27.23 80.8 27.15 80.99 27.02 81.27L25.94 83.6C25.9 83.69 25.84 83.73 25.76 83.73L25.01 83.73C24.94 83.73 24.89 83.71 24.88 83.68C24.86 83.65 24.86 83.61 24.86 83.58L24.86 78.52C24.86 78.45 24.87 78.41 24.91 78.39C24.95 78.37 24.98 78.37 25.01 78.37L25.76 78.37C25.83 78.37 25.88 78.38 25.89 78.42C25.91 78.46 25.92 78.49 25.92 78.52L25.92 80.78C25.92 80.82 25.91 80.97 25.9 81.23C25.89 81.45 25.89 81.66 25.88 81.88L25.92 81.88L26.43 80.66L27.41 78.53C27.44 78.46 27.46 78.42 27.48 78.41C27.51 78.38 27.55 78.37 27.62 78.37L28.36 78.37C28.43 78.37 28.47 78.38 28.49 78.42C28.5 78.46 28.51 78.49 28.51 78.52L28.51 83.58ZM33.49 83.58C33.49 83.68 33.44 83.73 33.34 83.73L32.59 83.73C32.49 83.73 32.43 83.68 32.43 83.58L32.43 81.37L30.96 81.37L30.96 83.58C30.96 83.64 30.95 83.69 30.92 83.71C30.9 83.72 30.86 83.73 30.8 83.73L30.06 83.73C29.95 83.73 29.9 83.68 29.9 83.58L29.9 78.52C29.9 78.46 29.91 78.41 29.94 78.39C29.97 78.38 30 78.37 30.06 78.37L30.8 78.37C30.91 78.37 30.96 78.42 30.96 78.52L30.96 80.52L32.43 80.52L32.43 78.52C32.43 78.46 32.45 78.41 32.47 78.39C32.5 78.38 32.54 78.37 32.59 78.37L33.34 78.37C33.41 78.37 33.45 78.38 33.47 78.41C33.49 78.43 33.49 78.47 33.49 78.52L33.49 83.58ZM38.59 83.64C38.59 83.69 38.58 83.71 38.55 83.72C38.52 83.73 38.49 83.73 38.47 83.73L37.6 83.73C37.55 83.73 37.52 83.72 37.5 83.71C37.48 83.69 37.46 83.65 37.44 83.57L37.1 82.3L35.76 82.3L35.44 83.57C35.41 83.68 35.36 83.73 35.3 83.73L34.46 83.73C34.39 83.73 34.35 83.72 34.34 83.69C34.33 83.65 34.33 83.62 34.34 83.58L35.9 78.48C35.92 78.41 35.97 78.37 36.03 78.37L36.93 78.37C36.98 78.37 37.02 78.41 37.04 78.49L38.57 83.54L38.59 83.64L38.59 83.64ZM36.9 81.59L36.58 80.25C36.54 80.07 36.5 79.88 36.47 79.68C36.45 79.53 36.43 79.37 36.41 79.21C36.38 79.43 36.37 79.56 36.36 79.6C36.34 79.75 36.29 79.96 36.22 80.25L35.87 81.59L36.9 81.59ZM44.93 83.15L44.73 83.74C44.7 83.82 44.64 83.86 44.56 83.86C44.45 83.86 44.34 83.84 44.22 83.82C44.03 83.77 43.87 83.7 43.76 83.61C43.65 83.51 43.57 83.39 43.51 83.23C43.49 83.16 43.46 83.02 43.42 82.83L43.23 81.89C43.2 81.72 43.16 81.61 43.1 81.54C43.01 81.42 42.85 81.37 42.64 81.37L42.3 81.37L42.3 83.58C42.3 83.64 42.29 83.69 42.27 83.71C42.24 83.72 42.2 83.73 42.15 83.73L41.4 83.73C41.3 83.73 41.24 83.68 41.24 83.58L41.24 78.52C41.24 78.46 41.26 78.41 41.28 78.39C41.31 78.38 41.35 78.37 41.4 78.37L42.15 78.37C42.25 78.37 42.3 78.42 42.3 78.52L42.3 80.52L42.57 80.52C42.77 80.52 42.92 80.48 43.02 80.4C43.12 80.32 43.19 80.16 43.23 79.93L43.35 79.27C43.39 79.01 43.45 78.83 43.52 78.72C43.59 78.6 43.69 78.51 43.8 78.44C43.92 78.37 44.04 78.32 44.17 78.28C44.3 78.25 44.4 78.23 44.49 78.23C44.57 78.23 44.62 78.26 44.64 78.33L44.8 78.88C44.83 78.98 44.8 79.03 44.72 79.05L44.53 79.1C44.43 79.12 44.36 79.16 44.32 79.21C44.26 79.29 44.21 79.41 44.18 79.6L44.09 80.15C44.06 80.34 44 80.48 43.93 80.59C43.83 80.74 43.68 80.84 43.48 80.91C43.67 80.98 43.83 81.08 43.94 81.22C44.06 81.37 44.14 81.55 44.18 81.76L44.31 82.42C44.34 82.61 44.38 82.73 44.42 82.8C44.46 82.87 44.54 82.92 44.65 82.94L44.85 82.99C44.87 82.99 44.88 83 44.9 83.01C44.91 83.02 44.92 83.03 44.93 83.04C44.95 83.07 44.95 83.11 44.93 83.15ZM49.42 83.64C49.42 83.69 49.41 83.71 49.38 83.72C49.35 83.73 49.32 83.73 49.3 83.73L48.43 83.73C48.38 83.73 48.35 83.72 48.33 83.71C48.31 83.69 48.29 83.65 48.27 83.57L47.93 82.3L46.59 82.3L46.27 83.57C46.24 83.68 46.19 83.73 46.13 83.73L45.29 83.73C45.22 83.73 45.18 83.72 45.17 83.69C45.16 83.65 45.16 83.62 45.17 83.58L46.73 78.48C46.75 78.41 46.8 78.37 46.86 78.37L47.76 78.37C47.81 78.37 47.85 78.41 47.87 78.49L49.4 83.54L49.42 83.64ZM47.73 81.59L47.41 80.25C47.37 80.07 47.33 79.88 47.3 79.68C47.28 79.53 47.26 79.37 47.24 79.21C47.21 79.43 47.2 79.56 47.19 79.6C47.17 79.75 47.12 79.96 47.05 80.25L46.7 81.59L47.73 81.59ZM55.75 83.15L55.54 83.74C55.51 83.82 55.46 83.86 55.38 83.86C55.31 83.86 55.25 83.86 55.2 83.85C54.93 83.82 54.71 83.74 54.56 83.6C54.46 83.51 54.38 83.39 54.33 83.23C54.3 83.16 54.27 83.02 54.23 82.83L54.05 81.89C54.02 81.72 53.97 81.61 53.91 81.54C53.82 81.42 53.67 81.37 53.45 81.37L53.23 81.37L53.23 83.58C53.23 83.68 53.18 83.73 53.07 83.73L52.32 83.73C52.22 83.73 52.17 83.68 52.17 83.58L52.17 81.37L51.94 81.37C51.73 81.37 51.58 81.42 51.48 81.54C51.42 81.61 51.38 81.72 51.35 81.89L51.16 82.83C51.12 83.04 51.09 83.17 51.08 83.22C51.03 83.37 50.94 83.51 50.83 83.61C50.71 83.71 50.54 83.78 50.32 83.83C50.25 83.84 50.15 83.85 50.02 83.86C49.96 83.86 49.92 83.84 49.89 83.82C49.89 83.81 49.87 83.79 49.85 83.74L49.65 83.15C49.62 83.06 49.65 83.01 49.73 82.99L49.93 82.94C50.04 82.92 50.12 82.87 50.16 82.81C50.2 82.75 50.24 82.62 50.27 82.42L50.4 81.76C50.44 81.54 50.51 81.36 50.62 81.24C50.73 81.11 50.89 81.01 51.1 80.94C50.91 80.86 50.77 80.75 50.67 80.62C50.58 80.49 50.52 80.33 50.49 80.15L50.4 79.6C50.37 79.41 50.33 79.29 50.28 79.23C50.23 79.17 50.16 79.12 50.05 79.1L49.86 79.05C49.78 79.03 49.76 78.98 49.78 78.88L49.95 78.33C49.97 78.26 50.02 78.23 50.09 78.23C50.2 78.23 50.31 78.25 50.42 78.28C50.53 78.31 50.64 78.36 50.76 78.43C50.92 78.52 51.03 78.65 51.11 78.81C51.15 78.9 51.2 79.06 51.23 79.27L51.35 79.93C51.39 80.16 51.46 80.32 51.56 80.4C51.66 80.48 51.81 80.52 52.01 80.52L52.17 80.52L52.17 78.52C52.17 78.46 52.18 78.41 52.21 78.39C52.23 78.38 52.27 78.37 52.32 78.37L53.07 78.37C53.18 78.37 53.23 78.42 53.23 78.52L53.23 80.52L53.38 80.52C53.58 80.52 53.73 80.48 53.83 80.4C53.93 80.32 54.01 80.16 54.05 79.93L54.16 79.27C54.21 79.01 54.26 78.83 54.34 78.72C54.41 78.6 54.5 78.51 54.62 78.44C54.73 78.37 54.85 78.32 54.98 78.28C55.11 78.25 55.22 78.23 55.3 78.23C55.38 78.23 55.43 78.26 55.45 78.33L55.61 78.88C55.64 78.98 55.61 79.03 55.54 79.05L55.34 79.1C55.24 79.12 55.17 79.16 55.13 79.21C55.07 79.29 55.03 79.41 55 79.6L54.9 80.15C54.87 80.34 54.82 80.48 54.74 80.59C54.64 80.74 54.49 80.84 54.3 80.91C54.5 81 54.66 81.1 54.77 81.23C54.88 81.36 54.96 81.54 55 81.76L55.12 82.42C55.16 82.61 55.2 82.73 55.24 82.8C55.27 82.87 55.35 82.92 55.47 82.94L55.67 82.99C55.68 82.99 55.7 83 55.71 83.01C55.72 83.02 55.73 83.03 55.74 83.04C55.76 83.07 55.76 83.11 55.75 83.15ZM60.18 84.84C60.18 84.94 60.13 84.99 60.03 84.99L59.35 84.99C59.28 84.99 59.23 84.98 59.22 84.94C59.2 84.91 59.19 84.87 59.19 84.84L59.19 83.73L56.98 83.73L56.98 84.84C56.98 84.91 56.96 84.95 56.92 84.97C56.89 84.98 56.86 84.99 56.82 84.99L56.14 84.99C56.07 84.99 56.03 84.98 56.01 84.94C56 84.91 55.99 84.87 55.99 84.84L55.99 83.04C55.99 82.94 56.04 82.89 56.15 82.89L56.29 82.89C56.41 82.68 56.5 82.47 56.57 82.26C56.64 82.06 56.7 81.81 56.74 81.54C56.78 81.26 56.81 80.98 56.83 80.72C56.85 80.46 56.85 80.23 56.85 80.04L56.85 78.52C56.85 78.42 56.91 78.37 57.01 78.37L59.56 78.37C59.63 78.37 59.68 78.38 59.69 78.42C59.71 78.46 59.72 78.49 59.72 78.52L59.72 82.89L60.03 82.89C60.1 82.89 60.14 82.9 60.16 82.94C60.18 82.98 60.18 83.01 60.18 83.04L60.18 84.84ZM58.65 82.89L58.65 79.21L57.84 79.21L57.84 80.19C57.84 80.6 57.83 80.93 57.81 81.17C57.78 81.41 57.73 81.65 57.68 81.89C57.6 82.25 57.48 82.58 57.33 82.89L58.65 82.89L58.65 82.89ZM64.71 81.05C64.71 81.42 64.69 81.75 64.63 82.03C64.54 82.54 64.37 82.95 64.12 83.26C63.79 83.66 63.34 83.86 62.77 83.86C62.13 83.86 61.65 83.61 61.32 83.13C60.99 82.64 60.83 81.95 60.83 81.05C60.83 80.68 60.86 80.36 60.91 80.07C61 79.56 61.17 79.15 61.42 78.84C61.76 78.44 62.2 78.23 62.77 78.23C63.41 78.23 63.89 78.48 64.22 78.97C64.55 79.47 64.71 80.16 64.71 81.05ZM63.61 81.05C63.61 80.51 63.56 80.09 63.47 79.78C63.34 79.31 63.1 79.08 62.77 79.08C62.44 79.08 62.21 79.31 62.08 79.78C61.98 80.11 61.94 80.53 61.94 81.05C61.94 81.57 61.98 81.98 62.05 82.27C62.18 82.76 62.42 83.01 62.77 83.01C63.11 83.01 63.35 82.77 63.48 82.28C63.56 81.97 63.61 81.56 63.61 81.05L63.61 81.05ZM68.7 78.46L68.69 78.53L68.53 79.18C68.53 79.22 68.51 79.25 68.48 79.27C68.45 79.3 68.41 79.31 68.35 79.31L66.84 79.31L66.84 83.58C66.84 83.68 66.79 83.73 66.69 83.73L65.94 83.73C65.86 83.73 65.82 83.71 65.8 83.68C65.79 83.65 65.78 83.61 65.78 83.58L65.78 78.52C65.78 78.45 65.8 78.41 65.84 78.39C65.87 78.38 65.9 78.37 65.94 78.37L68.58 78.37C68.66 78.37 68.7 78.4 68.7 78.46ZM72.58 81.05C72.58 81.42 72.55 81.75 72.5 82.03C72.41 82.54 72.24 82.95 71.99 83.26C71.66 83.66 71.21 83.86 70.64 83.86C70 83.86 69.52 83.61 69.19 83.13C68.86 82.64 68.7 81.95 68.7 81.05C68.7 80.68 68.72 80.36 68.77 80.07C68.87 79.56 69.04 79.15 69.29 78.84C69.62 78.44 70.07 78.23 70.64 78.23C71.27 78.23 71.76 78.48 72.08 78.97C72.41 79.47 72.58 80.16 72.58 81.05ZM71.47 81.05C71.47 80.51 71.43 80.09 71.34 79.78C71.21 79.31 70.97 79.08 70.64 79.08C70.31 79.08 70.08 79.31 69.94 79.78C69.85 80.11 69.8 80.53 69.8 81.05C69.8 81.57 69.84 81.98 69.92 82.27C70.05 82.76 70.29 83.01 70.64 83.01C70.98 83.01 71.22 82.77 71.35 82.28C71.43 81.97 71.47 81.56 71.47 81.05L71.47 81.05ZM79.12 84.84C79.12 84.94 79.07 84.99 78.97 84.99L78.29 84.99C78.21 84.99 78.17 84.98 78.15 84.94C78.14 84.91 78.13 84.87 78.13 84.84L78.13 83.73L75.92 83.73L75.92 84.84C75.92 84.91 75.9 84.95 75.86 84.97C75.83 84.98 75.8 84.99 75.76 84.99L75.08 84.99C75.01 84.99 74.97 84.98 74.95 84.94C74.94 84.91 74.93 84.87 74.93 84.84L74.93 83.04C74.93 82.94 74.98 82.89 75.08 82.89L75.23 82.89C75.35 82.68 75.44 82.47 75.51 82.26C75.58 82.06 75.63 81.81 75.68 81.54C75.72 81.26 75.75 80.98 75.77 80.72C75.78 80.46 75.79 80.23 75.79 80.04L75.79 78.52C75.79 78.42 75.84 78.37 75.95 78.37L78.5 78.37C78.57 78.37 78.61 78.38 78.63 78.42C78.65 78.46 78.65 78.49 78.65 78.52L78.65 82.89L78.97 82.89C79.04 82.89 79.08 82.9 79.1 82.94C79.11 82.98 79.12 83.01 79.12 83.04L79.12 84.84L79.12 84.84ZM77.59 82.89L77.59 79.21L76.78 79.21L76.78 80.19C76.78 80.6 76.77 80.93 76.74 81.17C76.72 81.41 76.67 81.65 76.62 81.89C76.54 82.24 76.43 82.57 76.27 82.89L77.59 82.89ZM83.68 83.58C83.68 83.68 83.63 83.73 83.53 83.73L82.78 83.73C82.67 83.73 82.62 83.68 82.62 83.58L82.62 81.37L81.15 81.37L81.15 83.58C81.15 83.64 81.14 83.69 81.11 83.71C81.08 83.72 81.04 83.73 80.99 83.73L80.24 83.73C80.14 83.73 80.09 83.68 80.09 83.58L80.09 78.52C80.09 78.46 80.1 78.41 80.13 78.39C80.15 78.38 80.19 78.37 80.24 78.37L80.99 78.37C81.1 78.37 81.15 78.42 81.15 78.52L81.15 80.52L82.62 80.52L82.62 78.52C82.62 78.46 82.64 78.41 82.66 78.39C82.69 78.38 82.73 78.37 82.78 78.37L83.53 78.37C83.59 78.37 83.64 78.38 83.66 78.41C83.67 78.43 83.68 78.47 83.68 78.52L83.68 83.58ZM88.15 83.58C88.15 83.64 88.14 83.69 88.11 83.71C88.09 83.72 88.05 83.73 87.99 83.73L87.25 83.73C87.18 83.73 87.14 83.72 87.12 83.69C87.1 83.67 87.09 83.63 87.09 83.58L87.09 81.55L86.75 81.55C86.53 81.55 86.38 81.6 86.29 81.72C86.24 81.79 86.19 81.9 86.15 82.07L85.98 82.89C85.93 83.11 85.88 83.27 85.83 83.36C85.79 83.45 85.72 83.54 85.64 83.6C85.56 83.68 85.44 83.74 85.28 83.78C85.13 83.83 84.98 83.86 84.86 83.86C84.76 83.86 84.7 83.82 84.67 83.74L84.46 83.15C84.44 83.07 84.46 83.01 84.54 82.99L84.74 82.95C84.84 82.92 84.91 82.87 84.96 82.81C85.01 82.75 85.05 82.62 85.09 82.42L85.18 82.04C85.23 81.82 85.29 81.65 85.37 81.52C85.47 81.35 85.62 81.22 85.82 81.13C85.68 81.09 85.55 81.02 85.43 80.94C85.29 80.85 85.19 80.76 85.12 80.65C85.05 80.55 85 80.42 84.96 80.28C84.92 80.14 84.9 80.01 84.9 79.87C84.9 79.66 84.94 79.45 85.02 79.25C85.1 79.05 85.21 78.89 85.36 78.76C85.54 78.6 85.78 78.48 86.08 78.42C86.25 78.38 86.47 78.37 86.72 78.37L87.99 78.37C88.1 78.37 88.15 78.42 88.15 78.52L88.15 83.58ZM87.09 80.7L87.09 79.21L86.7 79.21C86.41 79.21 86.21 79.3 86.08 79.46C86 79.59 85.95 79.75 85.95 79.96C85.95 80.2 86.02 80.39 86.15 80.51C86.29 80.64 86.48 80.7 86.72 80.7L87.09 80.7ZM91.2 78.3C91.2 78.62 91.08 78.89 90.86 79.11C90.64 79.33 90.37 79.44 90.06 79.44C89.75 79.44 89.48 79.33 89.26 79.11C89.04 78.89 88.93 78.62 88.93 78.3C88.93 77.99 89.04 77.72 89.26 77.5C89.48 77.27 89.75 77.16 90.06 77.16C90.37 77.16 90.64 77.27 90.86 77.5C91.08 77.72 91.2 77.99 91.2 78.3ZM90.95 78.3C90.95 78.06 90.87 77.84 90.69 77.67C90.52 77.49 90.31 77.4 90.06 77.4C89.82 77.4 89.61 77.49 89.43 77.67C89.26 77.84 89.17 78.06 89.17 78.3C89.17 78.55 89.26 78.76 89.43 78.94C89.61 79.11 89.82 79.2 90.06 79.2C90.31 79.2 90.52 79.11 90.69 78.94C90.87 78.76 90.95 78.55 90.95 78.3ZM90.57 78.82C90.6 78.87 90.59 78.9 90.55 78.91L90.4 78.91C90.37 78.91 90.34 78.9 90.32 78.86L90.03 78.37L89.93 78.37L89.93 78.85C89.93 78.89 89.91 78.91 89.88 78.91L89.74 78.91C89.71 78.91 89.69 78.89 89.69 78.85L89.69 77.72C89.69 77.68 89.71 77.66 89.74 77.66L90.12 77.66C90.23 77.66 90.31 77.69 90.38 77.75C90.45 77.81 90.49 77.89 90.49 78.01C90.49 78.14 90.42 78.25 90.28 78.34L90.57 78.82ZM90.24 78.01C90.24 77.9 90.18 77.84 90.06 77.84L89.93 77.84L89.93 78.19L90.06 78.19C90.12 78.19 90.16 78.17 90.19 78.15C90.23 78.12 90.24 78.07 90.24 78.01Z" fill="#79B33E" fill-opacity="1.000000" fill-rule="nonzero"/>
	</g>
</svg>
