<svg width="44.000000" height="32.000000" viewBox="0 0 44 32" fill="none" xmlns="http://www.w3.org/2000/svg" xmlns:xlink="http://www.w3.org/1999/xlink">
	<desc>
			Created with Pixso.
	</desc>
	<defs/>
	<path id="Vector" d="M43.23 2.98L15.23 30.98C15.07 31.15 14.88 31.27 14.67 31.36C14.45 31.45 14.23 31.5 14 31.5C13.77 31.5 13.54 31.45 13.32 31.36C13.11 31.27 12.92 31.15 12.76 30.98L0.51 18.73C0.18 18.4 -0.01 17.96 -0.01 17.5C-0.01 17.03 0.18 16.59 0.51 16.26C0.84 15.93 1.28 15.74 1.75 15.74C2.21 15.74 2.65 15.93 2.98 16.26L14 27.27L40.76 0.51C41.09 0.18 41.53 -0.01 42 -0.01C42.46 -0.01 42.9 0.18 43.23 0.51C43.56 0.84 43.75 1.28 43.75 1.75C43.75 2.21 43.56 2.65 43.23 2.98Z" fill="#82BF31" fill-opacity="1.000000" fill-rule="evenodd"/>
</svg>
